<?xml version="1.0" encoding="utf-8"?>
<!-- Generator: Adobe Illustrator 25.2.1, SVG Export Plug-In . SVG Version: 6.00 Build 0)  -->
<svg version="1.1" id="Layer_1" xmlns="http://www.w3.org/2000/svg" xmlns:xlink="http://www.w3.org/1999/xlink" x="0px" y="0px"
	 viewBox="0 0 512 512" style="enable-background:new 0 0 512 512;" xml:space="preserve">
<style type="text/css">
	.st0{fill:#FFFFFF;}
</style>
<path class="st0" d="M225.3,189c0,27.4,0,43.6,0,43.6h-39v46.2h38.4v114.6h45.5V278.2h40.2l5.1-45.1h-44.8V200c0-7.9,6-15.7,15-15.7
	c6,0,29.8,0.2,29.8,0.2v-40.8c0,0-41.6-0.4-44.4-0.4C252.3,143.3,225.3,164.7,225.3,189z"/>
<path d="M250.9,43.3c-124.3,0-225,100.7-225,225s100.7,225,225,225s225-100.7,225-225S375.2,43.3,250.9,43.3z M315.5,184.4
	c0,0-23.8-0.2-29.8-0.2c-9,0-15,7.8-15,15.7V233h44.8l-5.1,45.1h-40.2v115.2h-45.5V278.7h-38.4v-46.2h39c0,0,0-16.2,0-43.6
	c0-24.3,27-45.7,45.8-45.7c2.8,0,44.4,0.4,44.4,0.4V184.4z"/>
</svg>
