<?xml version="1.0" encoding="utf-8"?>
<!-- Generator: Adobe Illustrator 25.2.1, SVG Export Plug-In . SVG Version: 6.00 Build 0)  -->
<svg version="1.1" id="Layer_1" xmlns="http://www.w3.org/2000/svg" xmlns:xlink="http://www.w3.org/1999/xlink" x="0px" y="0px"
	 viewBox="0 0 512 512" style="enable-background:new 0 0 512 512;" xml:space="preserve">
<style type="text/css">
	.st0{fill:#FFFFFF;stroke:#000000;stroke-miterlimit:10;}
</style>
<g>
	<path class="st0" d="M254.9,192.3c-35.2,0-63.9,28.7-63.9,63.9c0,35.2,28.7,63.9,63.9,63.9s63.9-28.7,63.9-63.9
		C318.8,221,290.1,192.3,254.9,192.3z M254.5,295c-21.4-0.3-38.6-17.8-38.3-39.3s17.8-38.6,39.3-38.3s38.6,17.8,38.3,39.3
		S276,295.3,254.5,295z"/>
	<circle class="st0" cx="322" cy="188.6" r="10.8"/>
	<path class="st0" d="M302.8,131.3h-95.5c-42.6,0-77.2,34.6-77.2,77.2V304c0,42.6,34.6,77.2,77.2,77.2h95.5
		c42.6,0,77.2-34.6,77.2-77.2v-95.5C380,165.9,345.3,131.3,302.8,131.3z M352.1,304c0,27.3-22.2,49.4-49.4,49.4h-95.5
		c-27.3,0-49.4-22.2-49.4-49.4v-95.5c0-27.3,22.2-49.4,49.4-49.4h95.5c27.2,0,49.3,22.1,49.4,49.4V304z"/>
</g>
<g>
	<path d="M302.8,159.1h-95.5c-27.2,0-49.4,22.1-49.4,49.4V304c0,27.2,22.1,49.4,49.4,49.4h95.5c27.2,0,49.4-22.1,49.4-49.4v-95.5
		C352.1,181.2,330,159.1,302.8,159.1z M255,320.1c-35.2,0-63.9-28.7-63.9-63.9s28.7-63.9,63.9-63.9s63.9,28.7,63.9,63.9
		S290.2,320.1,255,320.1L255,320.1z M322.1,199.4c-6,0-10.8-4.8-10.8-10.8s4.8-10.8,10.8-10.8s10.8,4.8,10.8,10.8
		S328.1,199.4,322.1,199.4z"/>
	<ellipse cx="255" cy="256.3" rx="38.8" ry="38.8"/>
	<path d="M255,31.2c-124.3,0-225,100.7-225,225s100.7,225,225,225s225-100.7,225-225S379.3,31.2,255,31.2z M380,304
		c0,42.6-34.6,77.2-77.2,77.2h-95.5c-42.6,0-77.2-34.6-77.2-77.2v-95.5c0-42.6,34.6-77.2,77.2-77.2h95.5c42.6,0,77.2,34.6,77.2,77.2
		V304z"/>
</g>
</svg>
