<?xml version="1.0" encoding="utf-8"?>
<!-- Generator: Adobe Illustrator 25.2.1, SVG Export Plug-In . SVG Version: 6.00 Build 0)  -->
<svg version="1.1" id="Layer_1" xmlns="http://www.w3.org/2000/svg" xmlns:xlink="http://www.w3.org/1999/xlink" x="0px" y="0px"
	 viewBox="0 0 512 512" style="enable-background:new 0 0 512 512;" xml:space="preserve">
<style type="text/css">
	.st0{fill:#FFFFFF;}
</style>
<path d="M256,31C131.7,31,31,131.7,31,256s100.7,225,225,225s225-100.7,225-225S380.3,31,256,31z M356.3,204.1
	c0,0,7.3,66.6-45.3,116.5c-73.7,69.9-180,15.5-180,15.5c51.1,0.6,72.7-20.9,72.7-20.9c-42-7.2-46.2-37.2-46.2-37.2
	c7.2,4.5,22.9,0,22.9,0c-46.8-21.5-39.5-49.8-39.5-49.8c13.6,7.6,23.8,4.8,23.8,4.8c-36.4-31.6-15.8-65.1-15.8-65.1
	c63.9,60.8,105,48.3,105,48.3c-2.9-42.8,22.4-59.4,49.7-60.3c23-0.8,36.2,15.2,36.2,15.2c17.7,1.5,34.3-10.3,34.3-10.3
	c-1.5,14.3-20.9,26.4-20.9,26.4c10.1,0.9,27.7-4.6,27.7-4.6C371.8,199.3,356.3,204.1,356.3,204.1L356.3,204.1z"/>
<path class="st0" d="M353.2,187.2c0,0,19.4-12.1,20.9-26.4c0,0-16.6,11.8-34.3,10.3c0,0-13.2-16-36.2-15.2
	c-27.3,0.9-52.6,17.5-49.7,60.3c0,0-41.1,12.5-105-48.3c0,0-20.6,33.5,15.8,65.1c0,0-10.2,2.8-23.8-4.8c0,0-7.3,28.3,39.5,49.8
	c0,0-15.7,4.5-22.9,0c0,0,4.2,30,46.2,37.2c0,0-21.6,21.5-72.7,20.9c0,0,106.3,54.4,180-15.5c52.6-49.9,45.3-116.5,45.3-116.5l0,0
	c0,0,15.5-4.8,24.6-21.5C380.9,182.6,363.3,188.1,353.2,187.2z"/>
</svg>
