<?xml version="1.0" encoding="utf-8"?>
<!-- Generator: Adobe Illustrator 25.2.1, SVG Export Plug-In . SVG Version: 6.00 Build 0)  -->
<svg version="1.1" id="Layer_1" xmlns="http://www.w3.org/2000/svg" xmlns:xlink="http://www.w3.org/1999/xlink" x="0px" y="0px"
	 viewBox="0 0 512 512" style="enable-background:new 0 0 512 512;" xml:space="preserve">
<style type="text/css">
	.st0{fill:#FFFFFF;}
</style>
<g>
	<path d="M227.7,212v47.9v48l38.8-24l38.8-24L266.5,236L227.7,212z"/>
	<path d="M259.5,34.3c-124.3,0-225,100.7-225,225s100.7,225,225,225s225-100.7,225-225S383.8,34.3,259.5,34.3z M384.5,301
		c0,25-20.4,45.4-45.4,45.4H179.9c-25,0-45.4-20.4-45.4-45.4v-83.3c0-25,20.4-45.4,45.4-45.4h159.2c25,0,45.4,20.4,45.4,45.4
		L384.5,301z"/>
</g>
<path class="st0" d="M179.9,346.3h159.2c25,0,45.4-20.4,45.4-45.4v-83.3c0-25-20.4-45.4-45.4-45.4H179.9c-25,0-45.4,20.4-45.4,45.4
	v83.3C134.5,325.9,154.9,346.3,179.9,346.3z M227.7,259.8v-47.9l38.8,24l38.8,23.9l-38.8,24l-38.8,24V259.8z"/>
</svg>
