<?xml version="1.0" encoding="utf-8"?>
<!-- Generator: Adobe Illustrator 24.3.0, SVG Export Plug-In . SVG Version: 6.00 Build 0)  -->
<svg version="1.1" id="Layer_1" xmlns="http://www.w3.org/2000/svg" xmlns:xlink="http://www.w3.org/1999/xlink" x="0px" y="0px"
	 viewBox="0 0 1600 1600" style="enable-background:new 0 0 1600 1600;" xml:space="preserve">
<style type="text/css">
	.st0{fill:#D8001F;}
	.st1{fill:none;stroke:#000000;stroke-width:5;stroke-linecap:round;stroke-linejoin:round;stroke-miterlimit:10;}
</style>
<g>
	<g>
		<polygon class="st0" points="605.61,1077.47 638.71,1106.3 665.41,1106.3 720.93,1106.3 797.82,1110.57 861.88,1104.17 
			931.29,1089.22 957.99,1081.74 1018.85,1056.12 1078.65,1027.28 1128.84,1027.28 1172.62,1027.28 1180.09,988.84 1170.48,958.95 
			1155.53,937.59 1109.62,965.35 1071.71,994.72 995.89,1019.28 937.16,1038.5 875.23,1049.17 759.91,1057.72 690.5,1048.11 
			638.18,1052.38 618.96,1063.06 		"/>
		<polygon class="st0" points="1058.36,774.21 1012.45,715.49 984.68,706.94 964.39,708.01 874.7,749.66 864.02,779.55 
			850.14,797.71 776.46,831.88 672.88,874.59 633.66,901.06 575.71,972.83 567.17,995.25 567.17,1008.06 585.32,1003.79 
			625.9,968.56 683.56,948.27 746.56,945.06 789.27,939.72 846.94,927.98 971.87,875.66 1008.17,842.55 1053.02,814.79 		"/>
		<path d="M991.47,702.91c12.36,3.88,25.14,6.51,36.69,11.81c24.78,11.37,37.52,32.75,44.13,58.33
			c6.63,25.67,19.25,47.4,38.71,65.86c17.63,16.73,30.86,37.2,34.42,61.86c3.28,22.76,21.74,32.79,36.36,45.3
			c16.07,13.75,28.27,45.29,20.51,64.38c-1.35,3.32-6.17,5.06-8.79,8.06c-6.72,7.69-14.11,15.1-19.07,23.86
			c-1.74,3.08,2.36,9.97,4.6,14.74c9.21,19.65,18.72,39.16,26.33,61c-4.33-3.73-9.93-6.69-12.78-11.33
			c-11.87-19.4-22.5-39.57-34.56-58.84c-3.06-4.89-9.38-9.99-14.79-10.73c-20.78-2.83-41.76-7.11-62.7,0.14
			c-12.77,4.42-26.34,6.83-38.66,12.18c-26.47,11.49-51.98,25.3-78.69,36.16c-12.94,5.26-27.72,5.98-41.65,8.84
			c-9.79,2.01-19.79,3.39-29.3,6.34c-52.3,16.24-105.81,17.89-159.12,9.44c-25.95-4.11-48.5,1.62-72.47,8.26
			c-8.72,2.42-22.31-1.12-29.49-7.04c-18.19-15-41.8-23.3-53.97-46.21c-9.34-17.59-20.48-33.73-19.52-54.98
			c0.34-7.69-2.17-15.5-3.87-26.37c-12.54,3.68-23.79,6.98-35.41,10.39c20.93,45.63,41.23,89.86,61.52,134.1
			c-1.17,0.59-2.34,1.19-3.51,1.78c-31-36.69-46.96-81.79-69.39-127.98c-7.11,6.07-14.32,11.95-21.15,18.25
			c-1.9,1.76-2.04,6.07-4.03,7c-30.77,14.48-18.57,41.58-17.8,64.22c0.67,19.48,4.96,38.98,9.1,58.15
			c2.87,13.3,8.3,26.05,12.37,39.11c0.62,2,0.09,4.37,0.09,6.48c-18.66,3.03-21.97,0.25-24.01-16.84
			c-0.91-7.61-4.36-14.88-5.86-22.46c-1.38-6.99-1.32-14.25-2.55-21.28c-1.56-8.9-4.93-17.62-5.46-26.54
			c-0.92-15.28-0.25-30.65-0.25-45.82c-8.06,1.05-27.19,23.73-29.3,35.82c-2.82,16.13-9.3,32.45-8.1,48.21
			c1.23,16.09,9.87,31.6,15.49,48.03c-10.8,3.6-18.62,5.44-24.38-9.33c-13.41-34.36-16.18-69.16-2.36-102.73
			c10.96-26.62,29.06-49.72,54.69-65.27c2.25-1.37,4.75-3.02,6.03-5.2c9.18-15.47,24.33-23.77,38.88-32.67
			c5-3.06,10.67-5.82,16.35-6.77c15.24-2.55,31.71-1.34,45.66-6.82c10.82-4.25,18.62-16.28,27.65-24.98
			c1.27-1.23,1.87-3.16,2.81-4.74c4.75-7.93,14.82-17.15,13.27-23.53c-4.69-19.29-13.51-37.66-21.73-55.92
			c-1.25-2.77-7.9-4.24-12.09-4.33c-12.09-0.25-24.2,0.61-36.31,0.87c-13.56,0.3-27.47,0.02-36.98-11.27
			c-5.54-6.57-10.8-14.74-12.42-22.94c-2.14-10.78,0.73-22.5-0.91-33.46c-2.91-19.46-6.7-38.9-11.72-57.92
			c-12.12-46.01-14.86-92.61-9.29-139.59c1.25-10.56,7.68-20.54,11.94-30.69c5.66-13.48,11.52-26.88,17.3-40.31
			c5.88-13.65-1.97-25.56-8.36-34.9c-14.39-21.04-9.64-40.92-2.51-62c3.09-9.13,5.08-18.71,6.64-28.24c0.53-3.22-0.68-8.33-3-10.16
			c-24.77-19.52-19.13-43.2-10.68-68c10.33-30.31,22.23-60.26,40.17-86.45c18.92-27.62,41.82-52.57,63.76-78.01
			c7.41-8.59,18.35-14.14,25.7-22.78c23.88-28.05,57.87-33.71,90.42-42.54c25.01-6.78,50.24-12.75,75.41-18.93
			c3.12-0.77,6.61-1.35,9.69-0.76c36.72,7.02,74.94,7.29,109.64,23.4c28.63,13.29,58.41,24.92,85.02,41.56
			c29.94,18.72,59.41,39.31,78.66,70.88c4.81,7.88,11.73,15.96,19.68,20.12c19.56,10.24,28.87,30.6,27.95,46.95
			c-1.55,27.51,15.54,47.75,18.39,72.59c4.53,39.45,6.07,78.23-6.88,117.08c-13.92,41.78-37.73,78.04-58.97,115.77
			c-14.63,25.98-31.29,50.81-46.72,76.35c-2.74,4.53-4.39,9.9-5.68,15.1C997.08,676.9,994.38,689.88,991.47,702.91z M757.49,632.11
			c-4.99-7.67-10.21-15.2-14.83-23.09c-1.48-2.53-2.87-6.95-1.68-8.92c9.23-15.27-0.22-27.82-5.29-41.19
			c-1.57,6.34-2.03,12.67-2.19,19c-0.17,6.42-0.04,12.85-0.04,22.38c-5.48-2.89-9.7-3.68-10.9-6.02c-3.44-6.74-4.5-14.87-8.6-21.07
			c-8.85-13.39-3.23-37.04-27.48-39.64c-0.37-0.04-0.92-0.57-0.98-0.94c-2.78-18.47-24.68-6.05-31.53-19.84
			c0.34,8.19,2.03,15.19,6.06,20.36c3.88,4.97,9.99,7.73,4.46,15.5c-1.26,1.78,0.86,6.1,1.64,9.19c5.12,20.11,11.1,39.7,4.93,61.23
			c-8.11,28.24-13.94,57.13-20.97,85.68c-2.95,11.97-15.12,23.41-23.25,20.1c-14.42-5.88-32.96-8.85-34.66-29.32
			c-0.76-9.17,0.15-19.2,3.18-27.82c8.02-22.85,17.48-45.2,26.72-67.6c1.47-3.56,4.79-6.34,7.25-9.49
			c1.18,4.11,4.36,8.93,3.19,12.19c-4.82,13.5-10.48,26.77-16.73,39.68c-7.56,15.61-18.62,30.29-16.38,48.67
			c1.63,13.33,8.38,21.24,21.93,21.95c12.5,0.66,15.33-7.92,17.57-17.28c4.93-20.59,8.79-41.49,14.85-61.73
			c9.12-30.5,6.17-61.62-5.12-88.9c-15.06-36.38-17.1-75.25-29.42-111.76c5.4,7.79,10.8,15.58,16.2,23.37
			c1.76-0.64,3.52-1.27,5.28-1.91c-2.15-11.41-3.48-23.08-6.96-34.07c-1.02-3.22-8.82-6.99-12.31-6.05
			c-4.82,1.3-8.51,6.82-12.69,10.54c3.6,2.79,7.2,5.58,10.81,8.36c-9.22-3.11-14.37,0.98-18.43,9.19
			c-6.28,12.69-13.41,24.98-20.36,37.33c-0.89,1.57-2.89,2.51-6.91,5.85c0.95-5.12,1.12-7.14,1.74-9.02
			c0.59-1.79,1.65-3.42,4.02-8.14c-11.26,4.1-18.12,1.74-26.88-1.38c-19.2-6.83-20.22-21.14-23.39-35.29
			c-3.32-14.82-4.75-30-20.24-40.26c-2.94,2.62-7.85,4.92-9.18,8.54c-4.73,12.92-9.26,26.09-11.96,39.55
			c-2.99,14.92-5.14,30.42,5.47,43.95c12.84,16.36,8.38,33.19,2.43,50.77c-10.72,31.66-25.61,62.54-21.76,97.47
			c4.43,40.27,9.07,80.2,23.21,118.95c6.73,18.44,5.56,40.08,6.28,60.33c0.78,21.76,7.03,29.13,28.96,29.04
			c15.83-0.06,31.93-2.37,47.38-0.07c9.23,1.37,19.8,7.89,25.45,15.37c5.65,7.48,5.76,19.08,8.61,28.78
			c1.68,5.72,3.97,11.26,4.94,13.97c16.34-10.87,30.16-22.47,45.92-30.03c30.13-14.46,61.09-27.29,92.21-39.51
			c26.56-10.43,53.96-18.69,80.61-28.9c4.24-1.63,9.58-8.95,8.99-12.81c-1.07-7.04-6.2-13.46-10.51-21.83
			c-1.17,5.76-2.01,9.94-3.41,16.84c-7.82-11.41-14.23-20.77-18.02-26.3c-7.68-3.74-14.87-4.9-16.23-8.36
			c-3.66-9.3-5.13-19.52-6.9-29.48c-1.72-9.67-2.73-19.46-4.05-29.2c-0.88,0.04-1.77,0.09-2.65,0.13c-0.93,4.2-1.85,8.4-2.78,12.61
			c-0.64-0.03-1.28-0.07-1.91-0.1c-1.01-17.95-2.03-35.9-3.04-53.85c-1.28,0-2.57-0.01-3.85-0.01c-0.77,9.55-1.54,19.1-2.46,30.46
			c-7.1-11.37-0.77-24.7-13.59-46.05 M882.25,760.55c-7.51,15.9,5.34,25.98,10.09,39.41c-7.06,0-13.8-0.18-20.53,0.07
			c-3.59,0.14-7.59,0.17-10.66,1.72c-21.22,10.7-41.29,24.62-63.55,32.06c-30.97,10.35-61.26,19.98-90.1,36.83
			c-29.76,17.39-56.08,36.87-77.96,63.27c-10.8,13.04-21.46,28.28-35.72,35.76c-13.94,7.32-12.57,18.77-17.88,28.77
			c6.01-2.03,11.58-4.56,14.87-8.85c20.88-27.2,50.03-41.57,81.73-49.43c25.74-6.38,52.67-8.17,79.16-11.27
			c22.49-2.64,45.36-2.75,67.57-6.72c24.78-4.43,49.54-10.4,73.27-18.67c15.64-5.45,30.09-15.22,43.91-24.74
			c16.12-11.11,31-24.04,46.39-36.21c17.35-13.72,33.64-29.21,52.48-40.41c8.54-5.08,11.09-9.58,8.51-16.48
			c-8.88-23.82-15.66-49.3-37.89-65.12c-5.79-4.12-13.67-5.3-19.32-7.37c-4.91,21.17-9.21,38.59-12.92,56.14
			c-2.06,9.74-8.95,13.04-17.2,12.68c-3.08-0.13-5.91-5.52-8.94-8.43c-0.52-0.49-1.48-0.52-2.22-0.77c-1,3.38-2,6.76-3.16,10.68
			c-17.2-5.72-3.52-21.73-11.39-31.42c-1.12,9.9-2.07,18.29-2.94,25.91c-4.97-3.35-8.97-6.06-12.98-8.77
			c-0.57,0.88-1.14,1.76-1.71,2.64c3.69,6.49,7.38,12.99,11.07,19.48c-1.27,0.7-2.55,1.41-3.82,2.11
			c-4.52-5.43-9.03-10.85-13.55-16.28c-0.59,0.33-1.18,0.67-1.77,1c2.17,7.01,4.34,14.03,6.52,21.04
			C892.61,791.86,887.99,776.06,882.25,760.55z M928.09,917.94c-12.43,2.44-24.58,4.33-36.47,7.25
			c-27.82,6.85-55.17,16.67-83.36,20.72c-36.54,5.25-74,4.09-110.49,9.51c-21.86,3.24-43.54,11.9-63.61,21.64
			c-15.42,7.48-27.58,21.4-42.33,30.64c-10.4,6.51-11.55,15.21-7.42,23.61c5.39,10.97,13.8,20.44,22.06,32.18
			c18.38-26.99,45.96-21.25,69.61-26.18c8.97-1.87,19.08,1.15,28.58,2.55c20.1,2.96,40.05,7.57,60.24,9.06
			c12.16,0.9,24.63-3.2,37.02-4.34c35.53-3.25,71.11-6.08,106.65-9.27c3.09-0.28,6.47-1.37,8.98-3.14c2.48-1.75,4.02-4.83,5.98-7.33
			c-2.85-1.76-5.61-4.88-8.56-5.08c-21.03-1.38-42.14-1.73-63.14-3.43c-5.87-0.47-11.47-4.34-18.49-7.17
			c16.66-6,29.84-10.75,42.03-15.15c-7.81-4.03-18.11-6.04-20.33-11.41c-2.26-5.47,3.43-14.24,5.59-21.4
			C874.8,959.09,923.69,927.27,928.09,917.94z M694.48,1055.47c-25.81,3-46.43,5.23-66.99,7.95c-3.09,0.41-5.87,3.13-8.79,4.78
			c1.91,2.66,3.44,5.77,5.84,7.87c2.59,2.27,5.84,4,9.07,5.26c9.83,3.81,22.26,4.75,29.11,11.48c9.77,9.59,19.44,7.94,30.49,7.74
			c20.37-0.37,40.76,0.07,61.13,0.65c25.77,0.73,51.8,4.73,77.21,2.22c31.76-3.14,63.01-11.48,94.48-17.56
			c3.63-0.7,7.65-0.53,10.88-2.06c36-16.99,72.52-33.05,107.54-51.89c17.41-9.37,34.57-14.72,53.9-14.19
			c18.58,0.5,37.22,0.55,55.71,2.16c9.42,0.82,15.15-2.95,16.14-10.83c2.49-19.81-4.22-37.18-16.72-52.67
			c-7.39-9.15-12.25-8.22-19.95,0.54c-27.06,30.77-56.86,57.74-100.34,62.34c-2.47,0.26-4.67,2.48-7.15,3.36
			c-13.54,4.84-26.88,10.54-40.77,14.04c-14.23,3.59-28.99,5.12-43.55,7.32c-26.47,3.99-52.93,8.07-79.46,11.61
			c-16.71,2.23-33.51,4.28-50.34,5.08c-26.31,1.24-52.7,2.34-78.99,1.52C718.43,1061.73,704.06,1057.25,694.48,1055.47z
			 M1034.81,852.56c0.22,1.67,0.45,3.33,0.67,5c3.64,5.65,6.04,13.25,11.19,16.53c9.62,6.14,35.18-8.15,36.93-19.57
			c0.32-2.11,0.04-5.07-1.24-6.53c-8.38-9.59-17.1-18.87-25.65-28.19c-11.18,7.23-22.39,11.68-29.34,19.79
			c-6.3,7.34-20.19,13.72-11.8,29.13C1022.25,863.11,1028.53,857.84,1034.81,852.56z M890.69,997.42
			c29.96,3.04,86.33-18.14,100.16-49.02c-4.1,0.53-7.98,0.24-11.18,1.59c-19.23,8.15-38.66,15.94-57.27,25.35
			C910.88,981.17,893.33,979.04,890.69,997.42z M1127.76,931.42c-0.89-1.46-1.78-2.93-2.68-4.39c-7.34,4.21-15.57,7.4-21.81,12.87
			c-8.71,7.65-14.57,19.18-24.09,25.15c-17.82,11.16-37.43,19.42-56.18,29.1c-3.64,1.88-6.77,4.73-12.32,8.68
			C1037.8,1008.94,1121.95,955.12,1127.76,931.42z M1034.94,966.71c5.61-1.34,10.43-1.07,12.99-3.35
			c9.99-8.88,19.18-18.66,28.85-27.92c5.14-4.92,11.23-8.94,15.87-14.27c7.49-8.58,22.01-14.2,14.22-30.29
			c-9.85-4.22-13.57,3.13-17.83,9.62c-4.27,6.5-7.96,13.58-13.2,19.19c-9.57,10.24-20.4,19.29-30.08,29.44
			C1041.89,953.2,1039.67,958.85,1034.94,966.71z M998.19,911.37c-27.2,6.04-44.58,28.61-67.95,41.11
			C960.21,951.11,979.39,931.55,998.19,911.37z M931.31,1003.53c23.85-4.5,48.46-8.89,67.43-27.99c-7.8-1.15-16.46-2.97-22.55,0.19
			C960.62,983.81,946.2,994.11,931.31,1003.53z M983.29,1001.11c19.17-1.41,30.21-9.57,37.38-27.67
			C1008.21,982.66,995.75,991.89,983.29,1001.11z M977.96,894.25c-0.74-1.63-1.48-3.26-2.22-4.89
			c-13.44,7.59-26.88,15.18-40.33,22.76C954.37,916.01,964.11,900.88,977.96,894.25z M984.85,1016.49
			c-0.25-0.88-0.49-1.77-0.74-2.65c-5.67,0.83-11.38,1.43-16.99,2.56c-5.9,1.18-11.69,2.87-17.53,4.34c0.46,1.65,0.92,3.3,1.38,4.95
			C962.26,1022.62,973.55,1019.56,984.85,1016.49z"/>
		<path class="st1" d="M741.04,657.59c0.19,0.01,0.3,0.21,0.44,0.33c0.02,0.02,0.28-0.31,0.47-0.24c0.08,0.03,0.13,0.1,0.17,0.17
			c0.05,0.09,0,0.05,0.11,0.16c0.07,0.07,0.18-0.01,0.28-0.05c0.05-0.02,0.05-0.02,0.09-0.04c0.32-0.11,0.64,0.07,0.95,0.23
			c0.4,0.19,0.91-0.74,1.54-0.2c0.06,0.05,0.11,0.11,0.14,0.17l0.2,0.49l0.3,0.44l0.25,0.45l0.34,0.38l0.36,0.19l0.5,0.01l0.03,0
			c0.35,0.1,0.78,0.13,0.91,0.38c0,0.01,0.01,0.01,0.01,0.02l0.09,0.26c0.15,0.03,0.35-0.09,0.52,0.01
			c0.12,0.07,0.15,0.17,0.23,0.34c0.01,0.02,0.02,0.04,0.02,0.04l0.05,0.09c0.02,0.04,0.03,0.08,0.03,0.12
			c0.01,0.08,0,0.18,0.06,0.17c0.12-0.03,0.25-0.08,0.36,0.01c0.12,0.11,0.12,0.38,0.12,0.38c0.13-0.11,0.33-0.32,0.48,0
			c0.04,0.09,0.07,0.19,0.15,0.26c0.21,0.17,0.56-0.14,0.83-0.01c0.19,0.09,0.23,0.34,0.28,0.5l0.18,0.5
			c0.03,0.05,0.05,0.11,0.08,0.16c0.01,0.02,0.02,0.04,0.02,0.05c0.05,0.12,0.09,0.25,0.06,0.37c-0.06,0.22-0.36,0.41-0.36,0.41
			l-0.42,0.37l-0.46,0.29c-0.13,0.07-0.26,0.15-0.34,0.28l-0.04,0.34c0.05,0.16,0.17,0.23,0.28,0.4l0.28,0.49l0.18,0.51
			c0.1,0.22,0.3,0.36,0.57,0.46c0.11,0.04,0.22,0.1,0.27,0.2c0.17,0.33-0.22,0.66-0.3,0.9c-0.04,0.11,0.15,0.19,0.33,0.28l0.47,0.26
			l0.38,0.3c0.24,0.07,0.49,0.14,0.74,0.18c0.15,0.03,0.34,0.07,0.36,0.24c0.02,0.23-0.29,0.44-0.31,0.45
			c-0.01,0.01-0.02,0.01-0.02,0.01l-0.52,0.24c-0.15,0.04-0.33,0.05-0.42,0.14c-0.01,0.01,0.2,0.34,0.2,0.34l0.16,0.52l0.15,0.52
			l0,0.04l-0.06,0.54c-0.02,0.13-0.04,0.27-0.02,0.41c0.03,0.17,0.15,0.31,0.31,0.38l0.53,0.1l0.04,0.02
			c0.45,0.32,0.45,0.32,0.88,0.67c0.23,0.2,0.49,0.53,0.24,0.86c-0.2,0.26-0.63,0.11-0.89,0.32c-0.08,0.06-0.18,0.16-0.18,0.16
			l-0.45,0.33c-0.06,0.03-0.12,0.06-0.18,0.09c-0.09,0.05-0.19,0.15-0.19,0.15l0,0.45c-0.02,0.24-0.15,0.47-0.38,0.54
			c-0.22,0.07-0.46-0.11-0.5,0.41l0,0.03l-0.06,0.38c-0.08,0.37-0.33,0.7-0.77,0.74l-0.04,0l-0.46,0.04l-0.38,0.29l-0.41,0.27
			l-0.44,0.24l-0.32,0.44c-0.29,0.25-0.7,0.51-0.61,0.8c0.09,0.29,0.39,0.52,0.35,0.85c-0.05,0.37-0.5,0.53-0.64,0.85l-0.13,0.42
			c0,0-0.02,0.05-0.06,0.09c-0.15,0.16-0.46,0.25-0.46,0.25l-0.5,0.25l-0.45,0.12c-0.21,0.01-0.44-0.05-0.61-0.16l-0.39-0.31
			c-0.13-0.1-0.33-0.2-0.33-0.2c0.01,0.11,0.01,0.11,0.05,0.21c0,0,0.03,0.09-0.04,0.15c-0.17,0.14-0.49-0.28-0.87-0.34
			c-0.3-0.04-0.58-0.19-0.71,0.07c-0.13,0.25-0.23,0.38-0.62,0.27c-0.23-0.06-0.53-0.01-0.43,0.23c0.06,0.14,0.16,0.28,0.11,0.43
			c-0.06,0.17-0.34,0.26-0.34,0.26c-0.02,0-0.02,0-0.03,0l-0.5,0c-0.27,0.15-0.11,0.8-0.44,1.02c-0.15,0.1-0.34,0.12-0.48,0.22
			c-0.1,0.07-0.18,0.18-0.22,0.3l-0.2,0.51c-0.01,0.02-0.01,0.02-0.03,0.04l-0.3,0.26l-0.03,0.02l-0.47,0.21l-0.48,0.12
			c-0.19,0.13-0.71,0.46-0.89,0.59c-0.14,0.11-0.29,0.21-0.42,0.33c-0.36,0.33-0.39,0.43-0.66,0.84l-0.31,0.45
			c-0.3,0.46-0.3,0.46-0.59,0.93l-0.37,0.45c-0.06,0.06-0.13,0.11-0.19,0.16c-0.01,0.01-0.03,0.03-0.04,0.04
			c-0.05,0.05-0.19,0.07,0,0.19c0.11,0.06,0.27,0.13,0.27,0.13l0.49,0.25l0.49,0.24c0.5,0.24,0.5,0.24,1,0.46l0.49,0.23l0.48,0.11
			l0.53,0.14l0.5,0.2l0.53,0.1l0.04,0.02l0.44,0.32l0.46,0.29c0.03,0.02,0.06,0.04,0.09,0.05c0.21,0.13,0.39,0.3,0.42,0.53
			c0.03,0.22,0.02,0.44,0.02,0.66c0,0.11-0.01,0.23-0.09,0.33c-0.16,0.21-0.56,0.2-0.59,0.2c-0.01,0-0.02,0-0.03,0l-0.53-0.15
			l-0.51-0.11l-0.53,0.12l-0.55,0.02l-0.03,0l-0.55-0.14c-0.07-0.03-0.14-0.07-0.21-0.1c-0.09-0.04-0.24-0.07-0.24-0.07l-0.45,0.16
			c-0.18,0.03-0.36-0.03-0.55-0.06l-0.03-0.01l-0.5-0.06c-0.03-0.01-0.03-0.01-0.06-0.02l-0.41-0.32c-0.16-0.09-0.35-0.13-0.48-0.26
			l-0.28-0.4c-0.13-0.07-0.28-0.01-0.48-0.03l-0.52-0.11l-0.42,0c-0.14,0.06-0.23,0.18-0.32,0.31l-0.27,0.47l-0.27,0.32
			c-0.14,0.11-0.41,0.08-0.62,0.05l-0.03,0c-0.53,0-0.53,0-1.05,0.08l-0.52,0.01l-0.55,0.04l-0.56-0.08
			c-0.02-0.01-0.04-0.01-0.07-0.02c-0.19-0.07-0.37-0.19-0.44-0.38c-0.07-0.2-0.02-0.44-0.18-0.43c-0.23,0.02-0.46,0.08-0.7,0.12
			c-0.06,0.01-0.14,0.05-0.14,0.05l-0.32,0.43c0,0-0.04,0.04-0.08,0.06c-0.15,0.09-0.33,0.1-0.5,0.09l-0.52-0.04l-0.27,0.1
			c-0.1,0.28-0.19,0.58-0.45,0.72c-0.17,0.09-0.38,0.08-0.57,0.09l-0.59,0.03l-0.45-0.19c-0.11-0.05,0.05-0.06-0.31-0.13
			c-0.15-0.03-0.24,0.24-0.38,0.41l-0.36,0.38l-0.24,0.48l-0.27,0.48l-0.26,0.47l-0.03,0.03l-0.41,0.34
			c-0.13,0.18-0.18,0.38-0.33,0.47c-0.35,0.19-0.74-0.24-0.95-0.24c0,0-0.42,0.63-0.45,0.68c-0.09,0.15-0.16,0.32-0.23,0.48
			l-0.32,0.45c0,0-0.15,0.11-0.24,0.19c-0.15,0.13-0.08,0.37-0.31,0.55c-0.02,0.01-0.03,0.02-0.05,0.03
			c-0.18,0.08-0.35-0.13-0.5-0.13c-0.03,0-0.06,0.11-0.1,0.19c-0.04,0.09-0.05,0.09-0.07,0.13c-0.11,0.18-0.15,0.34-0.1,0.61
			c0.04,0.21-0.13,0.4-0.16,0.61c-0.02,0.12,0.36,0.16,0.32,0.49c-0.02,0.15-0.17,0.24-0.28,0.37l-0.21,0.43
			c0,0-0.02,0.04-0.06,0.07c-0.32,0.27-0.9-0.05-1.03,0.28c-0.11,0.28-0.11,0.64-0.35,0.81c-0.15,0.11-0.38,0.15-0.37,0.32
			c0,0.09,0.08,0.22,0.08,0.22c0.4,0.23,0.4,0.23,0.8,0.45l0.53,0.03c0.2,0.03,0.41,0.11,0.58-0.01c0.12-0.08,0.23-0.2,0.38-0.17
			c0.14,0.03,0.18,0.13,0.34,0.33c0.12,0.13,0.3,0.18,0.46,0.25l0.03,0.01l0.46,0.29c0.48,0.25,0.48,0.25,0.99,0.45l0.51,0.2
			l0.04,0.02l0.29,0.29l0.47,0.24c0.44,0.3,0.44,0.3,0.86,0.62c0,0,0.28,0.28,0.29,0.56l-0.06,0.38c-0.07,0.18-0.31,0.26-0.5,0.37
			l-0.4,0.37c-0.42,0.41-0.38,0.35-0.88,0.9c-0.1,0.11-0.22,0.22-0.36,0.25c-0.21,0.04-0.41-0.1-0.6-0.09
			c-0.16,0.01-0.27,0.1-0.46,0.17l-0.53,0.16l-0.53,0.13l-0.03,0l-0.54-0.02l-0.53,0.06c-0.51,0.16-0.51,0.16-1.02,0.35
			c-0.02,0.01-0.03,0.02-0.05,0.03c-0.23,0.13-0.34,0.42-0.18,0.66l0.45,0.34l0.22,0.26c0.13,0.2-0.08,0.42-0.12,0.6l0,0.54
			c-0.01,0.06-0.01,0.06-0.02,0.08c-0.05,0.16-0.15,0.3-0.27,0.42l-0.04,0.04l-0.42,0.37l-0.46,0.35l-0.48,0.26l-0.45,0.3
			c-0.43,0.34-0.43,0.34-0.85,0.69l-0.02,0.01c-0.16,0.09-0.32,0.19-0.48,0.28c-0.37,0.2-0.62,0.3-1.01,0.47l-0.53,0.17l-0.47,0.26
			l-0.48,0.27l-0.48,0.27l-0.49,0.23l-0.39,0.33c-0.07,0.16-0.15,0.3-0.2,0.46c-0.11,0.38-0.08,0.61-0.07,1c0,0.02,0,0.04-0.01,0.06
			c0,0.03-0.01,0.05-0.01,0.08c-0.04,0.24-0.21,0.48-0.47,0.54c-0.09,0.02-0.19,0.03-0.28,0.06l-0.43,0.31l-0.45,0.34l-0.5,0.29
			l-0.51,0.16l-0.42,0.25l-0.31,0.45c-0.14,0.14-0.33,0.21-0.52,0.25l-0.54,0.12l-0.42,0.26l-0.34,0.41l-0.36,0.43l-0.4,0.36
			l-0.34,0.42l-0.37,0.42l-0.41,0.38l-0.45,0.35l-0.49,0.26l-0.5,0.22l-0.05,0.01l-0.54-0.01l-0.54,0.04
			c-0.17,0.04-0.35,0.08-0.52,0.12c-0.21,0.05-0.47,0.23-0.65,0.06c0,0-0.09-0.22-0.17-0.34c-0.1-0.15-0.33-0.27-0.35-0.29
			c-0.01,0-0.01-0.01-0.01-0.02l-0.35-0.43c-0.34-0.43-0.34-0.43-0.69-0.84c-0.01-0.01-0.03-0.03-0.04-0.04
			c-0.02-0.01-0.03-0.03-0.05-0.04c-0.01-0.01-0.02-0.02-0.04-0.03c-0.01-0.01-0.02-0.02-0.03-0.02c-0.05-0.03-0.13-0.03-0.13-0.03
			l-0.24,0.23c0,0-0.07,0.06-0.15,0.01c-0.22-0.11-0.07-0.52-0.48-0.59c-0.22-0.04-0.48-0.09-0.49-0.03
			c-0.03,0.19,0.06,0.39,0.01,0.6c-0.04,0.17-0.17,0.39-0.17,0.39l-0.27,0.46l-0.03,0.03l-0.37,0.28c-0.2,0.23,0.01,0.7-0.18,0.94
			c-0.11,0.15-0.29,0.13-0.47,0.25c-0.1,0.07,0,0.26,0.04,0.48l0.15,1.09l-0.04,0.58l-0.14,0.53c-0.11,0.41-0.17,0.67-0.31,1.07
			c-0.06,0.17-0.13,0.34-0.2,0.51l-0.13,0.51l0.05,0.5l-0.03,0.44c-0.07,0.19-0.2,0.35-0.35,0.49c-0.15,0.15-0.34,0.28-0.56,0.29
			c-0.21,0.01-0.45-0.12-0.49,0.13c-0.06,0.33,0.12,0.69-0.08,0.96c-0.09,0.13-0.24,0.22-0.39,0.25c-0.17,0.03-0.34-0.04-0.51-0.07
			l-0.55-0.02l-0.55-0.03l-0.55,0.03c-0.23,0-0.48-0.01-0.62,0.16c-0.08,0.1-0.17,0.25-0.17,0.25l-0.29,0.46
			c-0.01,0.02-0.02,0.04-0.03,0.06c-0.02,0.05-0.04,0.1-0.07,0.15c-0.01,0.02-0.02,0.03-0.03,0.05c-0.05,0.1-0.12,0.19-0.2,0.25
			c-0.15,0.11-0.33,0.12-0.53,0.13l-0.03,0c-0.54,0.03-0.54,0.03-1.08,0.11l-0.55,0.06c-0.07,0-0.09-0.01-0.12-0.02
			c-0.05-0.01-0.11-0.02-0.16-0.03c-0.09-0.01-0.21,0-0.21,0l-0.35,0.32c0,0-0.05,0.03-0.1,0.05c-0.18,0.05-0.36-0.03-0.54-0.08
			c-0.16-0.04-0.18-0.04-0.27-0.07c-0.13-0.04-0.26-0.17-0.26-0.17l-0.17-0.44c-0.03-0.07-0.04-0.08-0.06-0.11
			c-0.13-0.19-0.35-0.38-0.5-0.38l-0.36,0.18c0,0-0.04,0.02-0.1,0.01c-0.1-0.02-0.18-0.1-0.24-0.18c-0.09-0.12,0.05-0.04-0.25-0.27
			c-0.13-0.1-0.29-0.19-0.32-0.35c-0.04-0.23,0.24-0.43,0.14-0.6c-0.07-0.1-0.25-0.17-0.25-0.17l-0.53-0.01l-0.47-0.13
			c-0.23-0.11-0.37-0.19-0.76,0.05c-0.06,0.03-0.08,0.05-0.12,0.06l-0.53,0.09l-0.55,0.11c-0.55,0.04-0.55,0.04-1.1,0.05l-0.54,0.06
			c-0.03,0-0.03,0-0.05-0.01l-0.43-0.15l-0.51-0.07c-0.13,0.01-0.27,0.05-0.34,0.15l-0.15,0.35c-0.12,0.2-0.39,0.06-0.67-0.02
			l-0.54-0.09l-0.52-0.1c-0.01,0-0.03,0-0.04,0c-0.41,0.05-0.68,0.55-0.99,0.37l-0.03-0.03l-0.2-0.26c-0.11-0.09-0.26-0.03-0.43,0
			l-0.58,0.03l-0.54-0.08l-0.54-0.02c-0.05,0-0.11,0.01-0.16,0.01c-0.03,0-0.06,0-0.08,0c-0.21,0-0.49-0.12-0.43-0.44
			c0.02-0.1,0.07-0.23,0.07-0.23c0.01-0.02,0.01-0.02,0.02-0.03l0.28-0.41l0.35-0.35c0.02-0.02,0.02-0.02,0.04-0.03l0.47-0.17
			l0.46-0.25l0.47-0.13l0.22-0.18c0.1-0.11,0.21-0.21,0.29-0.33c0,0,0.39-0.76,0.39-0.76l0.27-0.39c0.09-0.17,0.15-0.39,0.34-0.47
			c0.24-0.1,0.52,0.09,0.73-0.07c0.08-0.07,0.17-0.19,0.17-0.19c0.27-0.43,0.27-0.43,0.47-0.89c0.03-0.17,0-0.37,0.11-0.51
			l0.03-0.03l0.42-0.25c0.13-0.13,0.14-0.45,0.14-0.45l0.14-0.53l0.13-0.51c0.04-0.55,0.06-0.51,0.05-1.14
			c0-0.14-0.07-0.33-0.07-0.33l-0.2-0.23l-0.15-0.2c-0.11-0.08-0.28-0.03-0.45-0.08c-0.13-0.04-0.25-0.12-0.29-0.26
			c-0.06-0.2,0.08-0.46,0.27-0.45c0,0,0.42,0.38,0.88-0.03l0.31-0.4l0.11-0.49c0.15-0.44,0.15-0.44,0.32-0.87l0.02-0.04l0.17-0.17
			l0.3-0.31l0.29-0.3l0.27-0.36l0.09-0.19l-0.01-0.48l0.01-0.05l0.17-0.39l0.03-0.48l0.01-0.03l0.16-0.48l0.04-0.48
			c0.01-0.03,0.01-0.03,0.02-0.05l0.2-0.32l0.03-0.47c0.01-0.07,0.02-0.1,0.04-0.14c0.07-0.17,0.25-0.37,0.25-0.37
			c0.07-0.1,0.16-0.19,0.22-0.31c0.05-0.11,0.06-0.23,0.09-0.35c0.05-0.22,0.12-0.54,0.12-0.54l0.27-0.43l0.18-0.46l0.25-0.41
			l0.28-0.45c0.1-0.15,0.22-0.3,0.4-0.35c0.16-0.05,0.35,0,0.44-0.14c0.07-0.11,0.17-0.28,0.31-0.3l0.09,0l0.4-0.06
			c0.13-0.08,0.2-0.22,0.27-0.35l0.33-0.42l0.02-0.02l0.35-0.26c0.09-0.15,0.13-0.36,0.29-0.45c0.09-0.06,0.22-0.07,0.26-0.15
			c0,0,0.01-0.11,0.08-0.18c0.13-0.14,0.35-0.12,0.48-0.22c0.11-0.09,0.15-0.23,0.21-0.36l0.2-0.5l0.13-0.52l0.14-0.51l0.05-0.51
			l0.1-0.29c0.05-0.19,0.05-0.53,0.29-0.42c0,0,0.08,0.1,0.12,0.07c0.03-0.02,0.06-0.05,0.09-0.08l0.31-0.41l0.12-0.41
			c0.12-0.2,0.26-0.39,0.27-0.61c0.01-0.2-0.08-0.41,0.05-0.57c0.08-0.1,0.16-0.09,0.39-0.17c0.21-0.07,0.21-0.45,0.21-0.45
			l-0.01-0.47l0.02-0.46c0-0.35-0.1-0.74,0.14-0.93l0.05-0.02l0.28-0.05l0.32,0.02c0.13-0.06,0.2-0.33,0.2-0.33
			c0.03-0.32,0.08-0.74,0.07-1.06c-0.01-0.21-0.06-0.51-0.06-0.51c0.03-0.21,0.14-0.42,0.34-0.5l0.47-0.1
			c0.2-0.02,0.4-0.1,0.48-0.27c0.05-0.11,0.1-0.28,0.1-0.28c0.16-0.49,0.16-0.49,0.19-1l0.09-0.54l0.17-0.52l0.22-0.48l0.32-0.45
			l0.31-0.29l0.2-0.37l0.19-0.24c0.11-0.16,0.23-0.32,0.3-0.51c0.16-0.41,0.13-0.42,0.21-0.85l0.04-0.17l0.11-0.4l-0.02-0.51
			l-0.14-0.54c0-0.05-0.01-0.09-0.01-0.14c0-0.03,0-0.06,0-0.09c0-0.03,0-0.06,0-0.09c0.01-0.24,0.02-0.28,0.16-0.28
			c0.04,0,0.07,0.03,0.07,0.03l0-0.03c0.01-0.37,0.03-0.52-0.03-0.91c-0.02-0.16-0.08-0.39-0.08-0.39l-0.06-0.5l-0.26-0.29
			l-0.21-0.18c-0.01-0.04-0.01-0.04-0.01-0.08l0.03-0.17l-0.18-0.21l-0.02-0.09l0.02-0.05c0.14-0.19,0.14-0.19,0.28-0.38
			c0,0,0.13-0.1,0.25-0.12c0.12-0.03,0.25-0.02,0.37,0l0.46,0.06l0.31-0.08l0.19-0.02l0.53-0.11l0.04,0l0.43,0.06l0.35-0.18
			l0.07-0.05l0.35-0.26l0.12-0.01l0.06,0.07c0,0-0.02,0.11-0.12,0.18c-0.27,0.21-0.12,0.11-0.12,0.11c0.16-0.01,0.34,0,0.47,0.1
			l0.14,0.12l0.4,0.11l0.29,0.25c0.16,0.09,0.3-0.02,0.46-0.21c0.07-0.09,0.15-0.14,0.35-0.04c0.13,0.05,0.19-0.12,0.33-0.24
			c0.12-0.1,0.25-0.24,0.25-0.24l-0.07-0.34c0-0.25,0.17-0.4,0.15-0.67c0-0.01,0-0.02,0-0.03c0-0.11,0.13-0.19,0.13-0.19
			c0.04,0,0.04,0,0.09,0.01c-0.02-0.12-0.05-0.24,0-0.33l0.15-0.2l0.16-0.32l0.23-0.41l0.03-0.03l0.21-0.18l0.05-0.15
			c-0.01-0.15-0.1-0.33,0.04-0.43l0.05-0.02l0.25-0.03c0.06-0.04,0.06-0.13,0.11-0.24c0.12-0.29,0.23-0.67,0.51-0.58l0.08,0.03
			l0.19-0.01l0.26,0.07l0.09,0.06l0.12,0.08c0.06,0.01,0.12-0.04,0.18-0.08l0.25-0.32c0.06-0.08,0.13-0.15,0.18-0.24
			c0.07-0.12,0.12-0.4,0.11-0.49c-0.02-0.12-0.14-0.27-0.14-0.27c-0.26-0.09-0.26-0.12-0.53-0.12c0,0-0.42-0.09-0.5-0.42
			c-0.05-0.2,0.04-0.5,0.04-0.5l0.04-0.18l0.15-0.4l0.26-0.41l0.23-0.26l0.24-0.3c0.17-0.37,0.14-0.39,0.18-0.79l0.01-0.04
			l0.24-0.42l0.08-0.45c0.02-0.25,0.01-0.25,0-0.5l0.08-0.47c0.01-0.13-0.01-0.28-0.09-0.4l-0.22-0.21l-0.14-0.14
			c-0.11-0.16-0.05-0.22-0.03-0.32c0.02-0.07,0.04-0.17,0.04-0.17l-0.06-0.3c-0.14-0.13-0.39-0.13-0.57-0.31
			c-0.1-0.1-0.18-0.24-0.18-0.39l0.01-0.06c0.15-0.33,0.15-0.33,0.3-0.65l-0.07-0.41l-0.03-0.47l0-0.04l0.1-0.35l0.05-0.42
			l0.08-0.35l0.23-0.42l0.03-0.04l0.38-0.29c0.24-0.32,0.36-0.42,0.48-0.81c0.06-0.2,0.09-0.5,0.09-0.5l0.15-0.25
			c0.08-0.11,0.14-0.28,0.14-0.28l-0.19-0.23c-0.01-0.02-0.01-0.02-0.02-0.05l-0.06-0.31c0-0.03,0-0.03,0-0.06l0.09-0.28l0.01-0.36
			l-0.23-0.33c-0.01-0.02-0.03-0.04-0.04-0.07c-0.01-0.02-0.02-0.04-0.03-0.06c-0.06-0.12-0.09-0.26-0.01-0.38l0.06-0.04l0.25-0.07
			c0.08-0.01,0.14,0.02,0.21-0.01c0.05-0.03,0.1-0.07,0.15-0.1l0.3-0.29l0.06-0.27l0.12-0.34l0.03-0.04l0.34-0.35l0.03-0.02
			l0.42-0.22c0,0,0.4-0.09,0.64,0.1l0.22,0.21l0.29,0.07c0.03,0,0.05,0,0.07,0c0.09,0,0.22-0.03,0.22-0.03l-0.12-0.31l0.03-0.12
			l0.12-0.02l0.33,0.16c0.22-0.03,0-0.48,0.08-0.64c0.05-0.09,0.13-0.11,0.24-0.19l-0.04-0.28c0.01-0.03,0.01-0.03,0.03-0.06
			l0.2-0.23c-0.01-0.1-0.09-0.2-0.08-0.32c0.02-0.2,0.26-0.3,0.11-0.52c-0.09-0.12-0.24-0.26-0.08-0.38c0,0,0.19,0,0.28-0.04
			c0.22-0.08,0.16-0.44,0.23-0.63c0.09-0.24,0.34-0.34,0.67-0.35c0.23-0.01,0.44-0.17,0.65-0.13l0.25,0.06
			c0.13,0.01,0.25-0.1,0.37-0.15l0.4-0.12c0.13-0.02,0.26-0.03,0.35-0.12l0.16-0.17c0.02-0.02,0.02-0.02,0.04-0.03l0.21-0.07
			c0.11-0.07,0.11-0.07,0.2-0.16l0.19-0.22l0.04-0.03l0.23-0.1l0.47-0.13l0.21-0.16l0.06-0.05l0-0.11c0.01-0.03,0.01-0.03,0.04-0.06
			c0.13-0.11,0.27-0.21,0.16-0.42l-0.21-0.23l-0.22-0.29c-0.08-0.11-0.17-0.23-0.15-0.38l0.01-0.04l0.15-0.27
			c-0.18-0.05-0.35-0.17-0.35-0.17l-0.1-0.24l0-0.09l0.03-0.04l0.2-0.17c0.04-0.02,0.08-0.04,0.12-0.07
			c0.03-0.02,0.06-0.03,0.09-0.05c0.02-0.01,0.04-0.02,0.07-0.03c0.12-0.05,0.27-0.12,0.35,0c0,0-0.03,0.06,0.11,0.13
			c0.08,0.04,0.16,0.13,0.16,0.13c0.09-0.12,0.08-0.12,0.13-0.26l0.06-0.07l0.09,0.01l0.06,0.07c0,0,0.03,0.26,0.03,0.1
			c0-0.1,0.28-0.14,0.5-0.12l0.35,0.06c0.47,0.02,0.47,0.02,0.92-0.11l0.49-0.1l0.4-0.08l0.45-0.16l0.44-0.13l0.03,0l0.47,0.02
			c0.23-0.07,0.39-0.27,0.62-0.44c0.17-0.13,0.11-0.42,0.26-0.55l0.05-0.02l0.33-0.07l0.11-0.25l0.02-0.03l0.23-0.22l0.2-0.14
			l0.24-0.14l0.28-0.32l0.03-0.02l0.4-0.23c0.17-0.12,0.33-0.31,0.53-0.3c0.18,0.01,0.37,0.25,0.52,0.01
			c0.08-0.14,0.16-0.29,0.32-0.23c0,0,0.1,0.12,0.14,0.08c0.08-0.09,0.12-0.22,0.16-0.33l0.16-0.51l0.1-0.53l0.1-0.5
			c0-0.33,0.01-0.74-0.02-1.07c-0.02-0.17-0.16-0.84-0.19-0.97c-0.1-0.47-0.13-0.53-0.27-1c-0.16-0.52-0.16-0.52-0.33-1.04
			l-0.01-0.04l0.03-0.42l0.02-0.06l0.25-0.33l0.23-0.21c0.05-0.04,0.08-0.03,0.1-0.03l0.29,0.07c0.03,0.01,0.03,0.01,0.05,0.03
			l0.17,0.16c0.16,0.03,0.31-0.08,0.46-0.03l0.21,0.16l0.45,0.23l0.48,0.15l0.05,0.03l0.31,0.31l0.18,0.09l0.45-0.11
			c0.17-0.02,0.32,0.11,0.46,0.11l0.34-0.26c0.03-0.02,0.03-0.02,0.06-0.02l0.39-0.04l0.34,0.04c0.11,0.03,0.16,0.13,0.26,0.23
			l0.21-0.18c0.21-0.14,0.47,0.18,0.68,0.18l0.22-0.32c0.02-0.01,0.03-0.03,0.05-0.04c0.31-0.18,0.67,0.19,0.88,0.14l0.34-0.32
			c0.15-0.1,0.36-0.1,0.53-0.05l0.03,0.01l0.47,0.19l0.46,0.1l0.53,0.12l0.52,0.1c0.19,0.08,0.37,0.28,0.56,0.1
			c0.04-0.04,0.08-0.08,0.11-0.12c0.17-0.17,0.41-0.24,0.65-0.26c0.02,0,0.02,0,0.05,0l0.53,0.03l0.03,0.01l0.46,0.18l0.52,0.17
			c0.14,0.08,0.24,0.22,0.38,0.24c0,0,0.6-0.21,0.65-0.24c0.16-0.09,0.37-0.26,0.37-0.26c0.12-0.03,0.25,0.02,0.36,0.07
			c0.17,0.08,0.17,0.08,0.17,0.08l0.5,0.14c0.44,0.11,0.44,0.11,0.89,0.13l0.43-0.17c0.3-0.1,0.68-0.14,0.8-0.33
			c0.07-0.11,0.07-0.3,0.07-0.3l0.17-0.47l-0.05-0.4l-0.03-0.48c0.01-0.22,0.11-0.44,0.28-0.58l0.38-0.27l0.32-0.33
			c0,0,0.04-0.03,0.09-0.05c0.15-0.05,0.32-0.03,0.48-0.03l0.55-0.01l0.05,0.01l0.51,0.23c0.02,0.01,0.04,0.03,0.05,0.04
			c0.12,0.1,0.24,0.23,0.27,0.39c0,0-0.05,0.26-0.1,0.44c-0.03,0.13-0.07,0.25-0.1,0.38l0.12,0.36c0.16,0.26,0.3,0.54,0.55,0.74
			c0.13,0.1,0.28,0.15,0.42,0.23l0.43,0.32c0.12,0.08,0.26,0.15,0.42,0.15l0.46-0.14l0.43-0.03c0.03,0,0.03,0,0.07,0.02l0.47,0.29
			c0.02,0.01,0.04,0.03,0.06,0.04c0.02,0.01,0.04,0.02,0.06,0.03c0.15,0.09,0.34,0.12,0.5,0.06c0.12-0.05,0.3-0.14,0.3-0.14
			l0.52-0.17l0.5-0.21c0.02-0.01,0.04-0.01,0.06-0.02c0.04-0.01,0.09-0.03,0.13-0.03c0.03-0.01,0.06-0.01,0.09-0.02
			c0.16-0.02,0.37,0,0.42,0.16l0.03,0.25l0,0.05l-0.11,0.37c-0.02,0.41-0.01,0.41,0.05,0.82l0,0.05l-0.16,0.46
			c-0.07,0.16-0.12,0.34-0.26,0.45c0,0-0.4,0.08-0.6,0.12c-0.24,0.06-0.5,0.12-0.66-0.11c-0.16-0.23-0.21-0.59-0.49-0.59
			c-0.19,0-0.36,0.02-0.47-0.09l-0.17-0.3c-0.14-0.03-0.31,0.07-0.23,0.22c0.06,0.11,0.14,0.22,0.11,0.35
			c-0.05,0.21-0.31,0.31-0.29,0.53c0.02,0.15,0.05,0.28-0.01,0.4c-0.06,0.14-0.21,0.22-0.3,0.33l0.32,0.19l0.44,0.32
			c0,0,0.21,0.22,0.2,0.48c-0.01,0.39-0.42,0.65-0.9,0.64c-0.17-0.01-0.36-0.05-0.5,0.03l-0.26,0.37l-0.02,0.02l-0.41,0.31
			l-0.43,0.2l-0.37,0.36l-0.03,0.02l-0.47,0.24c-0.18,0.1-0.56,0.18-0.01,0.57c0.19,0.13,0.36,0.11,0.71,0.12
			C741.03,657.59,741.03,657.59,741.04,657.59L741.04,657.59z M674.72,734.45l0.56,0.09c0.08,0.02,0.16,0.05,0.24,0.08
			c0.08,0.03,0.19,0.04,0.19,0.04l0.14-0.31c0.01-0.02,0.02-0.04,0.04-0.06c0.11-0.15,0.31-0.21,0.49-0.23l0.04,0l0.56,0.08
			l0.42,0.14l0.53-0.06l0.55-0.01l0.54-0.04l0.53-0.11l0.52-0.08c0.17-0.08,0.31-0.25,0.51-0.26c0.17-0.01,0.3,0.07,0.49,0.16
			l0.02,0.01c0.45,0.13,0.46,0.12,0.93,0.13c0,0,0.52,0.17,0.48,0.51c-0.02,0.2-0.28,0.38-0.09,0.53c0.18,0.15,0.34,0.31,0.49,0.48
			c0.02,0.02,0.06,0.05,0.06,0.05l0.35-0.18c0,0,0.07-0.02,0.15-0.01c0.14,0.02,0.26,0.12,0.37,0.22c0.14,0.11,0.26,0.25,0.33,0.41
			l0.16,0.42c0.21,0.19,0.64,0.26,0.82,0.21l0.36-0.33c0.06-0.04,0.08-0.04,0.11-0.05c0.17-0.04,0.34,0.02,0.51,0.05l0,0
			c0.53-0.06,0.53-0.06,1.07-0.14l0.56-0.03c0.03,0,0.07,0,0.1,0c0.05,0,0.1-0.01,0.14-0.01c0.23-0.03,0.32-0.24,0.46-0.5l0.01-0.01
			c0.21-0.32,0.38-0.72,0.65-0.88c0.17-0.1,0.39-0.09,0.58-0.09l0.03,0l0.56-0.03l0.55,0.03l0.57,0.02
			c0.29,0.05,0.65,0.15,0.75-0.18c0.1-0.31-0.26-0.79,0.14-1.05c0.2-0.13,0.45,0.01,0.65-0.05c0.13-0.04,0.23-0.14,0.33-0.23
			c0.11-0.1,0.21-0.22,0.26-0.36l0,0c0.03-0.44,0.02-0.44-0.03-0.87l0-0.04l0.14-0.55l0.2-0.51l0.16-0.52
			c0.05-0.18,0.09-0.35,0.14-0.53c0.11-0.43,0.19-0.59,0.17-1.04c-0.01-0.18-0.05-0.36-0.07-0.53l-0.08-0.54
			c-0.05-0.21-0.16-0.44-0.02-0.63c0.09-0.12,0.25-0.1,0.46-0.25c0.12-0.09,0.03-0.32,0.05-0.53c0.01-0.17,0.06-0.35,0.19-0.47
			l0.36-0.27c0.2-0.33,0.45-0.65,0.41-1c-0.02-0.17-0.09-0.38,0.06-0.5c0.16-0.13,0.38-0.04,0.63-0.01c0.17,0.03,0.35,0.1,0.44,0.24
			c0.07,0.12,0.13,0.32,0.13,0.32l0.19-0.17c0.19-0.1,0.42,0.05,0.56,0.18l0.02,0.02l0.35,0.42c0.23,0.28,0.46,0.57,0.69,0.85
			c0.14,0.12,0.32,0.22,0.41,0.39l0.11,0.25c0.1,0.03,0.24-0.05,0.4-0.11l0.03-0.01l0.55-0.12l0.55-0.04l0.53,0.01l0.47-0.2
			c0.16-0.08,0.32-0.15,0.47-0.25c0.3-0.19,0.57-0.44,0.82-0.7c0.2-0.2,0.53-0.62,0.71-0.83l0.42-0.37l0.35-0.41l0.35-0.42
			l0.03-0.02l0.45-0.28l0.04-0.01c0.34-0.08,0.72-0.09,0.95-0.31l0.31-0.45l0.03-0.03l0.48-0.28l0.51-0.16l0.46-0.27l0.43-0.33
			l0.44-0.32c0.1-0.05,0.12-0.04,0.16-0.05c0.18-0.04,0.38-0.06,0.44-0.22c0.05-0.11,0.06-0.28,0.06-0.28l-0.01-0.51l0.08-0.53
			l0.01-0.03l0.23-0.52l0.44-0.37l0.02-0.02l0.49-0.23l0.48-0.27l0.48-0.27l0.5-0.28l0.52-0.16l0.5-0.22
			c0.29-0.14,0.69-0.32,0.96-0.51c0.15-0.1,0.28-0.23,0.42-0.34l0.43-0.35l0.47-0.31l0.48-0.25l0.43-0.33l0.41-0.36
			c0.11-0.11,0.22-0.22,0.25-0.38l0-0.54c0.02-0.17,0.15-0.32,0.16-0.46l-0.19-0.23l-0.43-0.31c0,0-0.1-0.12-0.13-0.23
			c-0.08-0.22-0.04-0.48,0.13-0.65c0.11-0.11,0.29-0.2,0.29-0.2l0.52-0.19l0.55-0.17l0.56-0.07l0.54,0.02l0.51-0.13l0.52-0.16
			c0.03-0.01,0.06-0.03,0.09-0.04c0.04-0.02,0.08-0.04,0.11-0.05c0.02-0.01,0.03-0.01,0.05-0.02c0.21-0.08,0.44-0.05,0.66,0.01
			c0.2,0.05,0.38-0.12,0.52-0.29l0.39-0.4c0.39-0.39,0.39-0.39,0.8-0.77c0,0,0.19-0.1,0.3-0.17c0.05-0.03,0.12-0.1,0.12-0.1
			l0.05-0.34c0-0.01-0.01-0.02-0.01-0.04c-0.04-0.15-0.2-0.33-0.2-0.33c-0.27-0.21-0.53-0.43-0.83-0.6
			c-0.15-0.09-0.31-0.16-0.47-0.24l-0.03-0.02l-0.29-0.29c-0.33-0.13-0.67-0.27-1-0.4l-0.51-0.26l-0.46-0.29
			c-0.17-0.08-0.36-0.13-0.49-0.25c-0.1-0.1-0.16-0.26-0.27-0.31c-0.1-0.04-0.31,0.29-0.69,0.22c-0.06-0.01-0.12-0.02-0.17-0.04
			c-0.03,0-0.06-0.01-0.06-0.01l-0.57-0.04l-0.47-0.26l-0.4-0.23c0,0-0.3-0.33-0.12-0.62c0.15-0.24,0.47-0.17,0.58-0.61
			c0.08-0.32,0.04-0.68,0.57-0.68c0.23,0,0.5,0.04,0.63-0.09l0.22-0.44c0.1-0.13,0.25-0.25,0.23-0.28c-0.1-0.16-0.29-0.23-0.32-0.41
			c-0.03-0.22,0.21-0.39,0.16-0.65c-0.01-0.05-0.02-0.1-0.03-0.14c-0.07-0.31,0.17-0.6,0.3-0.85c0.04-0.08,0.1-0.15,0.19-0.17
			c0.15-0.03,0.3,0.13,0.46,0.14c0.07-0.07,0.08-0.26,0.17-0.4c0.08-0.13,0.22-0.21,0.34-0.31l0.29-0.41l0.24-0.49
			c0.16-0.24,0.32-0.48,0.47-0.72c0,0,0.05-0.05,0.11-0.06c0.31-0.07,0.55,0.28,0.83,0.28c0.16,0,0.2-0.25,0.33-0.42l0.02-0.03
			l0.4-0.34l0.25-0.46l0.27-0.48l0.24-0.49l0.02-0.03l0.37-0.39c0.12-0.17,0.18-0.41,0.39-0.48c0.24-0.07,0.56,0.14,0.56,0.14
			l0.4,0.17c0.51-0.02,1.09,0.06,1.25-0.38l0.13-0.35l0.07-0.07l0.34-0.13l0.05-0.01c0.34,0.03,0.73,0.12,0.93-0.02l0.32-0.44
			c0.2-0.2,0.54-0.17,0.91-0.24c0.11-0.02,0.24-0.03,0.33,0.05c0.09,0.08,0.11,0.23,0.12,0.27c0,0.02,0.01,0.04,0.01,0.06
			c0,0.02,0.01,0.05,0.01,0.07c0.04,0.19,0.19,0.32,0.37,0.37l0.01,0c0.52,0.07,0.52,0.08,1.05,0.04l0.5-0.01l0.54-0.08l0.57,0
			c0.07,0.01,0.13,0.02,0.2,0.03c0.11,0.01,0.27-0.01,0.27-0.01c0.29-0.34,0.28-0.35,0.51-0.74c0.11-0.16,0.24-0.32,0.43-0.4
			l0.06-0.01l0.48,0.01l0.52,0.11c0.2,0.01,0.42-0.04,0.59,0.08l0.03,0.03l0.27,0.39c0.12,0.12,0.31,0.14,0.45,0.23l0.39,0.3
			c0.34,0.04,0.71,0.17,0.97,0.13l0.44-0.16c0,0,0.23,0,0.41,0.09c0.08,0.04,0.18,0.09,0.18,0.09l0.51,0.13
			c0.53-0.01,0.53-0.02,1.05-0.14l0.05,0c0.53,0.11,0.53,0.11,1.06,0.26c0.22,0.01,0.44-0.05,0.42-0.38
			c-0.02-0.3,0.05-0.64-0.17-0.82c-0.08-0.06-0.16-0.11-0.25-0.16l-0.47-0.3l-0.43-0.31l-0.54-0.1l-0.51-0.2
			c-0.5-0.13-0.5-0.13-1-0.25l-0.52-0.24l-0.5-0.23c-0.38-0.18-0.62-0.29-1-0.48c-0.43-0.21-0.99-0.38-0.98-0.66
			c0-0.22,0.23-0.33,0.39-0.46l0.01-0.01c0.34-0.42,0.34-0.42,0.62-0.88l0.3-0.46l0.31-0.45l0.32-0.47l0.39-0.41l0.43-0.34
			c0.46-0.31,0.46-0.31,0.92-0.61l0.03-0.02l0.49-0.12l0.43-0.19l0.27-0.23l0.19-0.49c0.07-0.18,0.19-0.33,0.35-0.43
			c0.22-0.13,0.5-0.12,0.55-0.43c0.05-0.32,0.11-0.69,0.39-0.8l0.04-0.01l0.51,0c0.01,0,0.02,0,0.03-0.01c0.1-0.03,0.19,0,0.03-0.39
			c-0.04-0.09-0.06-0.19-0.02-0.28c0.1-0.24,0.42-0.3,0.64-0.25c0.2,0.04,0.3,0.14,0.39-0.02c0.07-0.14,0.13-0.3,0.28-0.36
			c0.24-0.11,0.49,0.02,0.77,0.06c0.21,0.04,0.39,0.15,0.56,0.26l0.01-0.17c0.07-0.19,0.34-0.1,0.47-0.02
			c0.03,0.02,0.06,0.03,0.08,0.05c0.06,0.04,0.14,0.1,0.14,0.1l0.39,0.31c0.14,0.08,0.29,0.12,0.45,0.12l0,0
			c0.46-0.13,0.46-0.14,0.89-0.35c0.15-0.06,0.32-0.1,0.4-0.21c0.08-0.11,0.08-0.27,0.12-0.4c0,0,0.24-0.32,0.45-0.52
			c0.15-0.15,0.24-0.34,0.1-0.58c-0.13-0.22-0.31-0.44-0.27-0.7c0.03-0.18,0.16-0.33,0.3-0.45l0.39-0.34l0.31-0.43
			c0.02-0.02,0.02-0.02,0.04-0.03l0.46-0.25c0.4-0.27,0.4-0.27,0.79-0.56c0,0,0.39-0.05,0.62-0.07c0.19-0.02,0.38-0.11,0.45-0.27
			c0.04-0.09,0.06-0.18,0.08-0.28l0.06-0.37c0.02-0.19,0.02-0.41,0.18-0.52c0.16-0.11,0.39-0.04,0.54-0.13
			c0.11-0.07,0.16-0.21,0.16-0.33l0-0.45c0.04-0.2,0.26-0.3,0.46-0.41l0.02-0.01l0.43-0.31c0.04-0.03,0.08-0.07,0.11-0.1
			c0.11-0.1,0.23-0.18,0.37-0.21c0.26-0.06,0.64,0,0.62-0.33c-0.01-0.14-0.15-0.25-0.27-0.36l-0.42-0.34l-0.42-0.3l-0.51-0.1
			c-0.07-0.02-0.07-0.03-0.1-0.04c-0.04-0.02-0.07-0.04-0.1-0.07c-0.05-0.04-0.09-0.08-0.13-0.13c-0.04-0.05-0.07-0.1-0.1-0.16
			c-0.1-0.2-0.08-0.43-0.04-0.65l0.05-0.52c-0.15-0.5-0.15-0.5-0.3-1.01c-0.09-0.16-0.28-0.32-0.19-0.51
			c0.09-0.19,0.34-0.21,0.53-0.26l0.03-0.01l0.47-0.23c0.1-0.08,0.21-0.24,0.21-0.24c-0.16-0.09-0.43-0.09-0.43-0.09l-0.52-0.15
			l-0.04-0.02l-0.39-0.31l-0.44-0.24c-0.03-0.02-0.06-0.03-0.1-0.05c-0.16-0.08-0.33-0.18-0.36-0.34c-0.06-0.31,0.32-0.51,0.34-0.82
			c0.01-0.17-0.36-0.2-0.56-0.35c-0.13-0.1-0.23-0.24-0.3-0.4l-0.18-0.52l-0.26-0.45c-0.12-0.15-0.26-0.28-0.31-0.46l-0.01-0.06
			l0.04-0.38c0,0,0.02-0.07,0.06-0.12c0.1-0.13,0.24-0.22,0.39-0.3l0.45-0.28l0.4-0.35c0.11-0.09,0.26-0.19,0.29-0.29
			c0.04-0.14-0.07-0.28-0.14-0.44l-0.19-0.52c-0.06-0.22-0.08-0.42-0.33-0.35c-0.33,0.1-0.72,0.07-0.87-0.26
			c-0.03-0.06-0.06-0.14-0.06-0.14c-0.1,0.07-0.21,0.37-0.42,0.15c-0.1-0.11-0.04-0.31-0.1-0.43c-0.12,0-0.27,0.11-0.39,0
			c-0.15-0.13-0.08-0.29-0.25-0.65c-0.01-0.02-0.02-0.03-0.03-0.05c-0.1-0.17-0.52,0.13-0.65-0.14l-0.1-0.29
			c-0.07-0.1-0.29-0.13-0.29-0.13l-0.47-0.14l-0.51-0.01c-0.03,0-0.03,0-0.05-0.01l-0.4-0.22l-0.03-0.03l-0.37-0.43l-0.25-0.46
			l-0.31-0.46l-0.2-0.49c-0.1-0.14-0.28-0.24-0.45-0.21c-0.31,0.04-0.52,0.39-0.81,0.42c-0.38,0.05-0.65-0.46-1.14-0.27
			c-0.16,0.06-0.34,0.16-0.5,0.06c-0.12-0.08-0.15-0.23-0.24-0.32c-0.17,0.08-0.27,0.3-0.46,0.24c-0.13-0.04-0.19-0.21-0.29-0.29
			c-0.15-0.11-0.36,0.02-0.59-0.02c-0.22-0.04-0.41-0.18-0.57-0.33c-0.09-0.09-0.18-0.21-0.16-0.35c0.03-0.19,0.21-0.32,0.36-0.42
			l0.04-0.02l0.46-0.24l0.37-0.36l0.03-0.02l0.44-0.21l0.37-0.28l0.26-0.37c0,0,0.04-0.04,0.09-0.06c0.37-0.17,0.92,0.13,1.19-0.29
			c0.09-0.13,0.05-0.32-0.05-0.45l-0.44-0.32c-0.04-0.02-0.08-0.04-0.12-0.06c-0.15-0.08-0.33-0.16-0.3-0.34
			c0.03-0.17,0.25-0.25,0.32-0.38c0.07-0.14-0.05-0.33,0.01-0.51c0.07-0.19,0.36-0.28,0.23-0.5c-0.06-0.11-0.12-0.21-0.1-0.32
			c0.05-0.28,0.51-0.45,0.67-0.22l0.16,0.3c0.13,0.09,0.36-0.02,0.54,0.07c0.34,0.18,0.28,0.79,0.7,0.7c0.23-0.05,0.47-0.1,0.7-0.14
			c0.11-0.1,0.17-0.33,0.17-0.33l0.15-0.43l-0.07-0.45l0.03-0.43l0.1-0.36l-0.03-0.19c-0.12-0.07-0.4,0.05-0.4,0.05l-0.51,0.21
			l-0.52,0.17c-0.18,0.08-0.35,0.19-0.54,0.19c-0.21,0.01-0.4-0.1-0.57-0.21l-0.44-0.27c-0.42,0.02-0.42,0.03-0.82,0.16
			c0,0-0.07,0.01-0.12,0c-0.16-0.01-0.31-0.08-0.44-0.17l-0.03-0.02l-0.42-0.31l-0.43-0.24l-0.03-0.02l-0.33-0.37l-0.27-0.45
			l-0.14-0.41l0-0.07l0.11-0.41l0.09-0.36c-0.03-0.14-0.23-0.27-0.23-0.27l-0.46-0.21l-0.52,0.01c-0.07,0-0.15-0.01-0.22-0.01
			c-0.09,0-0.21,0.03-0.21,0.03l-0.33,0.34l-0.38,0.27c-0.11,0.1-0.16,0.25-0.19,0.39l0,0c0.03,0.44,0.03,0.44,0.08,0.88l-0.01,0.05
			l-0.18,0.49l-0.08,0.33c-0.1,0.17-0.29,0.24-0.5,0.3l-0.43,0.14l-0.44,0.17l-0.05,0.01l-0.52-0.02c-0.47-0.12-0.47-0.12-0.95-0.25
			c0,0-0.23-0.16-0.39-0.15l-0.35,0.25c-0.34,0.13-0.34,0.13-0.69,0.25c0,0-0.2-0.02-0.33-0.11c-0.09-0.06-0.21-0.15-0.21-0.15
			l-0.49-0.16l-0.45-0.17l-0.51-0.03c-0.23,0.02-0.43,0.1-0.65,0.32c-0.07,0.07-0.16,0.14-0.25,0.15c-0.19,0.03-0.35-0.11-0.54-0.19
			l-0.5-0.09l-0.53-0.12l-0.49-0.1l-0.47-0.19c-0.11-0.03-0.25-0.05-0.35,0.01l-0.33,0.31c0,0-0.03,0.03-0.09,0.04
			c-0.24,0.06-0.48-0.16-0.74-0.18c-0.03,0-0.08,0.01-0.08,0.01l-0.22,0.33c-0.25,0.19-0.53-0.18-0.7-0.17l-0.24,0.21
			c-0.08,0.05-0.03,0.04-0.12,0.03c-0.13-0.02-0.2-0.16-0.3-0.25l0,0c-0.31-0.04-0.31-0.03-0.62,0l-0.33,0.26
			c-0.16,0.08-0.37-0.07-0.54-0.09l-0.48,0.11l-0.07-0.01l-0.26-0.13l-0.31-0.3l-0.48-0.15l-0.49-0.25l-0.16-0.13
			c-0.15-0.03-0.33,0.09-0.48,0.02l-0.2-0.18l-0.2-0.05c-0.22,0.2-0.21,0.21-0.39,0.44l-0.03,0.37l0.16,0.49l0.16,0.53
			c0.05,0.18,0.11,0.35,0.16,0.53c0.08,0.3,0.17,0.73,0.23,1.02c0.03,0.15,0.05,0.3,0.08,0.45l0,0.02c0.02,0.55,0.02,0.55,0.02,1.1
			l-0.11,0.53l-0.1,0.55l-0.17,0.52c-0.02,0.04-0.03,0.09-0.05,0.13c-0.01,0.03-0.02,0.06-0.04,0.09c-0.06,0.12-0.23,0.38-0.42,0.25
			c0,0,0-0.13-0.17,0.11c-0.05,0.07-0.12,0.13-0.2,0.15c-0.11,0.03-0.23-0.02-0.33-0.06c-0.07-0.03-0.07-0.03-0.1-0.03
			c-0.17-0.05-0.31,0.16-0.46,0.26l-0.39,0.22l-0.28,0.32l-0.03,0.02l-0.26,0.14l-0.18,0.12c-0.21,0.2-0.21,0.21-0.33,0.48
			c0,0-0.01,0.04-0.08,0.06l-0.35,0.08c-0.04,0.1-0.03,0.23-0.08,0.33c-0.11,0.24-0.38,0.34-0.61,0.53
			c-0.12,0.1-0.32,0.17-0.32,0.17l-0.47-0.02l-0.42,0.12l-0.47,0.16l-0.41,0.08l-0.48,0.09l-0.48,0.14l-0.04,0l-0.49-0.03
			l-0.35-0.06c-0.2-0.02-0.09,0.01-0.09,0.01c0.1,0.22-0.33,0.31-0.53,0.11l-0.14,0.17c-0.08,0.04-0.03,0.04-0.12,0.01
			c-0.11-0.04-0.17-0.19-0.26-0.19l-0.2,0.04l-0.09-0.08l0-0.05c-0.03,0.01-0.05,0.03-0.08,0.04c-0.04,0.02-0.07,0.04-0.11,0.06
			l-0.11,0.1l0.06,0.14c0.16,0.1,0.36,0.07,0.41,0.22l-0.01,0.08l-0.18,0.35c0,0.07,0.05,0.11,0.11,0.2l0.22,0.28l0.23,0.26
			c0.11,0.18,0.13,0.42-0.02,0.56l-0.14,0.12l0,0.11c-0.01,0.03-0.01,0.03-0.03,0.06l-0.1,0.09l-0.23,0.18l-0.04,0.02l-0.48,0.14
			l-0.19,0.09l-0.18,0.2l-0.09,0.09l-0.18,0.12l-0.2,0.07l-0.17,0.17c-0.13,0.1-0.29,0.13-0.44,0.16l-0.37,0.11
			c-0.15,0.07-0.3,0.19-0.47,0.16c-0.01,0-0.01,0-0.02,0l-0.25-0.06c-0.17-0.02-0.33,0.11-0.52,0.13c-0.19,0.02-0.42-0.03-0.51,0.13
			c-0.04,0.08-0.07,0.16-0.08,0.25l-0.03,0.24c-0.04,0.2-0.22,0.37-0.43,0.38c0.14,0.19,0.16,0.39,0,0.63
			c-0.08,0.13,0.1,0.26,0.03,0.46l-0.02,0.04l-0.19,0.21l0.04,0.23c0.01,0.13-0.08,0.17-0.24,0.27c-0.01,0-0.01,0.01-0.02,0.01
			c-0.07,0.06,0.1,0.23,0.04,0.46c-0.04,0.16-0.18,0.32-0.36,0.31l-0.14-0.06l0.04,0.09c0.01,0.05,0.01,0.09-0.01,0.13
			c-0.11,0.21-0.42,0.17-0.55,0.15l-0.33-0.08c-0.03-0.01-0.03-0.01-0.05-0.03c-0.08-0.07-0.15-0.16-0.24-0.22
			c-0.12-0.08-0.27-0.09-0.4-0.07l0,0c-0.39,0.2-0.4,0.2-0.7,0.52l-0.11,0.31l-0.07,0.32l-0.02,0.03l-0.34,0.33
			c-0.03,0.02-0.06,0.05-0.09,0.07c-0.11,0.08-0.25,0.14-0.38,0.1l-0.16,0.04c0,0.07,0.05,0.15,0.09,0.21l0.25,0.36
			c0.02,0.03,0.02,0.03,0.02,0.07l-0.02,0.42l-0.09,0.3l0.05,0.26l0.18,0.23c0.09,0.16-0.02,0.35-0.14,0.52l-0.13,0.22l-0.08,0.46
			l-0.01,0.03l-0.22,0.47l-0.31,0.4l-0.02,0.02l-0.37,0.29l-0.21,0.38c-0.07,0.36-0.07,0.36-0.11,0.72l-0.1,0.36l0.03,0.44
			l0.07,0.43l-0.01,0.07l-0.19,0.4l-0.12,0.26c0.01,0.3,0.54,0.34,0.72,0.56l0.02,0.05l0.07,0.35c0,0.09-0.01,0.09-0.01,0.12
			c-0.01,0.05-0.02,0.09-0.03,0.14c-0.01,0.05,0,0.12,0,0.12c0.16,0.17,0.17,0.17,0.34,0.33c0,0,0.17,0.32,0.15,0.58l-0.08,0.45
			l0.01,0.34c-0.03,0.34-0.05,0.34-0.11,0.67l-0.01,0.04l-0.24,0.42l-0.05,0.5l-0.01,0.03l-0.16,0.34l-0.26,0.32l-0.23,0.26
			l-0.23,0.38c-0.09,0.22-0.16,0.44-0.21,0.7c-0.03,0.18,0.05,0.4,0.27,0.45c0.01,0,0.01,0,0.01,0l0.23,0l0.39,0.13
			c0.11,0.06,0.1,0.08,0.13,0.12c0.06,0.07,0.1,0.16,0.12,0.25c0.01,0.05,0.02,0.11,0.02,0.16l-0.06,0.32l-0.09,0.23l-0.2,0.25
			l-0.27,0.34c-0.11,0.09-0.25,0.17-0.39,0.13c-0.02,0-0.02-0.01-0.04-0.02l-0.14-0.09l-0.07-0.05l-0.19-0.05l-0.22,0.01
			c0,0-0.06-0.11-0.15,0.05c-0.15,0.27-0.19,0.64-0.41,0.73l-0.23,0.03c0.01,0.05,0.02,0.11,0.03,0.16c0.01,0.06,0.01,0.09,0,0.13
			l-0.06,0.2c-0.01,0.03-0.01,0.03-0.03,0.05l-0.22,0.19c-0.2,0.35-0.2,0.35-0.38,0.72l-0.14,0.2c0,0.01,0,0.02,0,0.02
			c0.01,0.2,0.13,0.48-0.19,0.43c0.02,0.24-0.15,0.5-0.15,0.64l0.07,0.36c-0.03,0.26-0.3,0.39-0.54,0.58
			c-0.11,0.08-0.25,0.15-0.39,0.08l-0.04-0.03c-0.09,0.09-0.15,0.22-0.27,0.29c-0.15,0.09-0.34,0.08-0.5-0.01l-0.3-0.25l-0.4-0.11
			l-0.16-0.13c-0.1-0.07-0.31-0.05-0.31-0.05l-0.28,0.06l-0.26,0.21l-0.03,0.02l-0.35,0.13c-0.03,0.01-0.03,0.01-0.06,0.01
			l-0.31-0.06c0,0-0.18-0.04-0.07-0.2c0.03-0.04,0.1-0.07,0.1-0.07l-0.44,0.09l-0.19,0.02l-0.31,0.08c0,0-0.36-0.04-0.58-0.07
			c-0.13-0.01-0.27-0.02-0.36,0.06l0,0c-0.11,0.14-0.11,0.14-0.22,0.29l0.16,0.18c0.01,0.02,0.03,0.03,0.02,0.09l-0.03,0.15
			l0.15,0.12l0.29,0.32l0.03,0.06l0.07,0.53l0.09,0.4l0.04,0.52l-0.01,0.42c-0.01,0.07,0.01,0.12-0.05,0.37
			c-0.02,0.08-0.03,0.18-0.18,0.14l0,0.05l0.14,0.55l0.02,0.54l0,0.03l-0.12,0.41l-0.04,0.16l-0.1,0.53l-0.13,0.36l-0.1,0.22
			c-0.2,0.3-0.2,0.3-0.42,0.58l-0.19,0.36l-0.02,0.03l-0.31,0.3c-0.19,0.27-0.37,0.55-0.49,0.86c-0.14,0.37-0.2,0.61-0.25,1
			c-0.02,0.18-0.02,0.35-0.03,0.53l0,0.03c-0.06,0.19-0.12,0.37-0.18,0.56c-0.01,0.03-0.01,0.03-0.02,0.07
			c-0.07,0.19-0.17,0.38-0.35,0.47c-0.11,0.06-0.24,0.08-0.36,0.1l-0.44,0.09c-0.1,0.07-0.16,0.18-0.18,0.3l0.06,0.49l-0.02,0.55
			l-0.05,0.56c-0.01,0.03-0.02,0.06-0.03,0.09c-0.01,0.03-0.02,0.05-0.03,0.08c-0.06,0.14-0.16,0.29-0.31,0.34l-0.04,0.01
			l-0.32-0.02l-0.2,0.04c-0.05,0.07-0.04,0.19-0.04,0.29l0,0.46l-0.02,0.46l0.01,0.47c0,0.03,0,0.07-0.01,0.1
			c-0.01,0.2-0.07,0.42-0.26,0.52c-0.19,0.1-0.4,0.05-0.39,0.26c0.01,0.16,0.03,0.33-0.01,0.49c-0.03,0.12-0.09,0.24-0.16,0.35
			l-0.11,0.18l-0.11,0.39l-0.02,0.04l-0.34,0.44c-0.08,0.08-0.22,0.2-0.36,0.14l-0.04-0.03c-0.02,0.08-0.03,0.16-0.05,0.24
			l-0.09,0.25l-0.05,0.53l-0.15,0.51l-0.13,0.53c-0.15,0.39-0.25,0.87-0.58,1.03c-0.17,0.08-0.34,0.07-0.39,0.23
			c-0.01,0.02-0.01,0.04-0.03,0.06c-0.1,0.17-0.35,0.16-0.44,0.36c-0.02,0.05-0.04,0.1-0.06,0.15c-0.03,0.07-0.06,0.11-0.09,0.15
			l-0.36,0.26l-0.3,0.39c-0.1,0.17-0.2,0.34-0.36,0.44l-0.05,0.02l-0.45,0.07c-0.2,0-0.22,0.35-0.51,0.4
			c-0.07,0.01-0.14,0.01-0.2,0.02c-0.01,0-0.02,0-0.04,0c-0.14,0.03-0.23,0.15-0.32,0.27l-0.27,0.45l-0.25,0.4l-0.19,0.46
			l-0.26,0.42l-0.1,0.49l-0.09,0.37l-0.02,0.04l-0.23,0.33c-0.02,0.03-0.05,0.05-0.07,0.08c-0.09,0.11-0.17,0.32-0.17,0.32
			l-0.03,0.49l-0.02,0.05l-0.2,0.32l-0.04,0.49l-0.16,0.48l-0.03,0.49l-0.01,0.04l-0.17,0.38l0,0.52l-0.11,0.25l-0.29,0.39l-0.3,0.3
			l-0.3,0.31l-0.15,0.16c-0.11,0.27-0.23,0.55-0.31,0.84c-0.04,0.16-0.07,0.33-0.11,0.5l-0.02,0.05l-0.35,0.45
			c-0.28,0.25-0.67,0.43-0.96,0.19c-0.04-0.04-0.15-0.15-0.13,0.04c0.02,0.2,0.46,0.08,0.68,0.25l0.18,0.23l0.2,0.23
			c0.12,0.16,0.12,0.38,0.12,0.59l-0.01,0.54l-0.04,0.54c-0.11,0.43-0.22,0.86-0.32,1.29c-0.03,0.13-0.08,0.25-0.18,0.33l-0.41,0.25
			c-0.08,0.14-0.05,0.39-0.06,0.41c0,0.01,0,0.02-0.01,0.03l-0.21,0.49l-0.28,0.45c-0.04,0.06-0.08,0.11-0.13,0.16
			c-0.12,0.13-0.29,0.21-0.46,0.21c-0.17-0.01-0.37-0.09-0.46,0.02c-0.08,0.1-0.1,0.18-0.18,0.33l-0.28,0.4l-0.16,0.32l-0.22,0.44
			l-0.02,0.02l-0.32,0.36l-0.25,0.2l-0.04,0.02l-0.48,0.13l-0.45,0.25l-0.45,0.17c-0.32,0.33-0.32,0.33-0.58,0.7
			c-0.06,0.14-0.21,0.36,0.14,0.36c0.27,0,0.54,0,0.81,0.01l0.55,0.08l0.53-0.03c0.21-0.04,0.45-0.11,0.62,0.06
			c0,0,0.01,0.01,0.01,0.02l0.19,0.25c0.22,0,0.5-0.42,0.91-0.41C674.35,734.36,674.54,734.42,674.72,734.45L674.72,734.45z"/>
	</g>
	<g>
		<g>
			<path d="M703.39,1326.5h-16.99c-1.21,0-2.44-0.08-3.7-0.23c-1.26-0.15-2.68-0.44-4.25-0.86c-2.65,12.29-9.28,21.93-19.88,28.92
				c-10.6,6.99-23.77,10.48-39.49,10.48c-8.73,0-16.84-1.01-24.31-3.03c-7.47-2.02-13.92-5.29-19.34-9.8
				c-5.48-4.58-9.73-10.48-12.74-17.71c-3.01-7.23-4.52-15.99-4.52-26.29c0-8.19,0.51-15.63,1.54-22.32
				c1.02-6.69,1.63-10.39,1.81-11.11h25.48v0.72c-0.78,3.01-1.63,7.92-2.53,14.73s-1.35,12.86-1.35,18.16
				c0,7.77,3.1,13.69,9.31,17.76c6.2,4.07,14.97,6.1,26.29,6.1c11.2,0,20.02-1.94,26.43-5.83c6.42-3.89,9.62-9.89,9.62-18.03
				c0-7.59-0.3-14.4-0.9-20.42c-0.6-6.02-1.24-10.18-1.9-12.47v-0.72h27.92c0,6.87,0.99,11.82,2.98,14.87
				c1.99,3.04,4.52,4.56,7.59,4.56h12.92V1326.5z M625.68,1252.68H612.4v-13.37h13.28V1252.68z"/>
			<path d="M774.96,1326.5h-8.95c-6.39,0-11.99-1.36-16.81-4.07c-4.82-2.71-8.22-5.78-10.21-9.22c-2.53,4.1-6.1,7.33-10.71,9.71
				c-4.61,2.38-9.99,3.57-16.13,3.57h-15.18v-32.53h11.11c5.36,0,9.76-1.85,13.19-5.56c3.43-3.7,5.15-9.02,5.15-15.95v-11.11h25.21
				v11.11c0,6.45,1.63,11.64,4.88,15.59c3.25,3.95,7.77,5.92,13.55,5.92h4.88V1326.5z M727.07,1353.16H713.7v-13.37h13.37V1353.16z
				 M751.29,1353.16h-13.37v-13.37h13.37V1353.16z"/>
			<path d="M823.48,1272.47c0,16.57-3.63,29.71-10.89,39.44c-7.26,9.73-16.85,14.59-28.78,14.59h-15.18v-32.53h11.11
				c5.6,0,10.09-1.9,13.46-5.69c3.37-3.79,5.06-9.06,5.06-15.81v-26.48h25.21V1272.47z M802.25,1353.16h-13.37v-13.37h13.37V1353.16
				z"/>
			<path d="M932.19,1326.5h-8.85c-2.29,0-4.94-0.36-7.95-1.08c-3.01-0.72-5.3-1.54-6.87-2.44c-3.37,8.19-7.91,14.98-13.6,20.38
				c-5.69,5.39-12.27,9.65-19.74,12.79c-7.59,3.19-14.58,5.44-20.96,6.73c-6.39,1.29-11.78,1.94-16.18,1.94v-32.8
				c3.67,0,8.54-0.53,14.59-1.58c6.05-1.05,11.67-2.64,16.85-4.74c5.96-2.47,10.42-5.59,13.37-9.35c2.95-3.76,4.43-8.39,4.43-13.87
				c0-4.03-0.54-8.19-1.63-12.47c-1.08-4.28-2.29-8.07-3.61-11.39c-1.51-3.67-2.85-6.64-4.02-8.9c-1.17-2.26-1.97-3.75-2.39-4.47
				v-1.08h26.48c1.26,2.23,2.78,5.27,4.56,9.13c1.78,3.86,2.97,6.87,3.57,9.04c1.02,3.49,2.92,6.31,5.69,8.45
				c2.77,2.14,6.54,3.21,11.29,3.21h4.97V1326.5z"/>
			<path d="M1003.84,1326.5h-8.95c-6.39,0-11.99-1.36-16.81-4.07c-4.82-2.71-8.22-5.78-10.21-9.22c-2.53,4.1-6.1,7.33-10.71,9.71
				c-4.61,2.38-9.99,3.57-16.13,3.57h-15.18v-32.53h11.11c5.36,0,9.76-1.85,13.19-5.56c3.43-3.7,5.15-9.02,5.15-15.95v-11.11h25.21
				v11.11c0,6.45,1.63,11.64,4.88,15.59c3.25,3.95,7.77,5.92,13.55,5.92h4.88V1326.5z M959.66,1239.49h-13.37v-13.37h13.37V1239.49z
				 M983.88,1239.49H970.5v-13.37h13.37V1239.49z"/>
			<path d="M1113,1326.5h-24.94c-5.54,0-10.96-1.25-16.26-3.75c-5.3-2.5-9.82-5.5-13.55-8.99c-3.98,3.92-8.55,7.02-13.73,9.31
				c-5.18,2.29-10.54,3.43-16.08,3.43h-30.9v-32.53h31.27c1.14,0,2.29-0.17,3.43-0.5c1.14-0.33,1.93-0.68,2.35-1.04
				c-2.29-1.57-4.8-3.52-7.55-5.87c-2.74-2.35-5.2-4.7-7.36-7.05c-2.41-2.59-4.44-5.21-6.1-7.86c-1.66-2.65-2.48-5.03-2.48-7.14
				c0-4.64,1.45-8.76,4.34-12.38c2.89-3.61,6.69-6.69,11.39-9.22c4.16-2.29,9.04-4.11,14.64-5.47c5.6-1.36,11.21-2.03,16.81-2.03
				c5.42,0,10.87,0.62,16.36,1.85c5.48,1.24,10.57,3.06,15.27,5.47c4.64,2.41,8.45,5.42,11.43,9.04c2.98,3.61,4.47,7.74,4.47,12.38
				c0,2.17-0.87,4.61-2.62,7.32c-1.75,2.71-3.79,5.27-6.14,7.68c-2.11,2.17-4.7,4.62-7.77,7.36c-3.07,2.74-5.51,4.83-7.32,6.28
				c0.24,0.36,0.9,0.65,1.99,0.86c1.08,0.21,2.35,0.32,3.79,0.32h25.3V1326.5z M1071.62,1276.62c2.65-1.93,4.76-3.57,6.33-4.92
				c1.57-1.36,2.35-2.45,2.35-3.3c0-1.38-0.72-2.62-2.17-3.7c-1.45-1.08-3.28-2.02-5.51-2.8c-2.29-0.78-4.7-1.37-7.23-1.76
				c-2.53-0.39-4.91-0.59-7.14-0.59c-5.18,0-10.09,0.89-14.73,2.67c-4.64,1.78-6.96,3.78-6.96,6.01c0,0.72,0.84,1.85,2.53,3.39
				c1.69,1.54,3.73,3.18,6.14,4.92c2.17,1.57,4.58,3.19,7.23,4.88c2.65,1.69,4.58,2.83,5.78,3.43c1.57-0.78,3.64-1.96,6.24-3.52
				C1067.07,1279.76,1069.45,1278.19,1071.62,1276.62z M1064.03,1213.64h-13.37v-13.37h13.37V1213.64z"/>
			<path d="M1212.22,1288.01c0,11.63-3.57,21.19-10.71,28.69c-7.14,7.5-16.04,11.25-26.7,11.25c-5.3,0-10.36-0.92-15.18-2.76
				c-4.82-1.84-9.13-4.41-12.92-7.73c-3.61,3.01-7.47,5.27-11.57,6.78c-4.1,1.51-9.13,2.26-15.09,2.26h-13.37v-32.53h13.73
				c4.03,0,6.81-1.43,8.31-4.29c1.51-2.86,2.38-6.19,2.62-9.98c0.6-11.39,4.22-20.68,10.84-27.88c6.63-7.2,15.21-10.8,25.75-10.8
				c5.78,0,11.35,1.12,16.72,3.34c5.36,2.23,10,5.3,13.92,9.22c4.1,3.98,7.39,8.89,9.89,14.73
				C1210.97,1274.16,1212.22,1280.72,1212.22,1288.01z M1187.01,1284.31c0-4.4-1.81-8.15-5.42-11.25c-3.61-3.1-7.71-4.65-12.29-4.65
				c-3.68,0-6.73,1.28-9.17,3.84c-2.44,2.56-3.66,5.65-3.66,9.26c0,3.73,1.67,7.02,5.01,9.85c3.34,2.83,7.42,4.25,12.24,4.25
				c3.98,0,7.18-1.02,9.62-3.07C1185.79,1290.48,1187.01,1287.74,1187.01,1284.31z"/>
		</g>
		<g>
			<path d="M598.48,1497.25h-16.99c-1.21,0-2.44-0.08-3.7-0.23s-2.68-0.44-4.25-0.86c-2.65,12.29-9.28,21.93-19.88,28.92
				c-10.6,6.99-23.77,10.48-39.49,10.48c-8.73,0-16.84-1.01-24.31-3.03c-7.47-2.02-13.92-5.29-19.34-9.8
				c-5.48-4.58-9.73-10.48-12.74-17.71c-3.01-7.23-4.52-15.99-4.52-26.29c0-8.19,0.51-15.63,1.54-22.32
				c1.02-6.69,1.63-10.39,1.81-11.11h25.48v0.72c-0.78,3.01-1.63,7.92-2.53,14.73c-0.9,6.81-1.35,12.86-1.35,18.16
				c0,7.77,3.1,13.69,9.31,17.76c6.2,4.07,14.97,6.1,26.29,6.1c11.2,0,20.02-1.94,26.43-5.83c6.42-3.89,9.62-9.89,9.62-18.03
				c0-7.59-0.3-14.4-0.9-20.42c-0.6-6.02-1.24-10.18-1.9-12.47v-0.72h27.92c0,6.87,0.99,11.82,2.98,14.86
				c1.99,3.04,4.52,4.56,7.59,4.56h12.92V1497.25z M520.77,1423.43h-13.28v-13.37h13.28V1423.43z"/>
			<path d="M670.04,1497.25h-8.95c-6.39,0-11.99-1.36-16.81-4.07c-4.82-2.71-8.22-5.78-10.21-9.22c-2.53,4.1-6.1,7.33-10.71,9.71
				c-4.61,2.38-9.99,3.57-16.13,3.57h-15.18v-32.53h11.11c5.36,0,9.76-1.85,13.19-5.56c3.43-3.7,5.15-9.02,5.15-15.95v-11.11h25.21
				v11.11c0,6.45,1.63,11.64,4.88,15.59c3.25,3.95,7.77,5.92,13.55,5.92h4.88V1497.25z M622.15,1523.91h-13.37v-13.37h13.37V1523.91
				z M646.37,1523.91H633v-13.37h13.37V1523.91z"/>
			<path d="M779.2,1497.25h-24.94c-5.54,0-10.97-1.25-16.27-3.75c-5.3-2.5-9.82-5.5-13.55-8.99c-3.98,3.92-8.55,7.02-13.73,9.31
				c-5.18,2.29-10.54,3.43-16.09,3.43h-30.9v-32.53h31.27c1.14,0,2.29-0.16,3.43-0.5c1.14-0.33,1.93-0.68,2.35-1.04
				c-2.29-1.57-4.8-3.52-7.55-5.87c-2.74-2.35-5.2-4.7-7.36-7.05c-2.41-2.59-4.44-5.21-6.1-7.86c-1.66-2.65-2.48-5.03-2.48-7.14
				c0-4.64,1.45-8.76,4.34-12.38c2.89-3.61,6.69-6.69,11.38-9.22c4.16-2.29,9.04-4.11,14.64-5.47c5.6-1.36,11.2-2.03,16.81-2.03
				c5.42,0,10.87,0.62,16.36,1.85c5.48,1.24,10.57,3.06,15.27,5.47c4.64,2.41,8.45,5.42,11.43,9.04c2.98,3.61,4.47,7.74,4.47,12.38
				c0,2.17-0.87,4.61-2.62,7.32c-1.75,2.71-3.8,5.27-6.14,7.68c-2.11,2.17-4.7,4.62-7.77,7.36c-3.07,2.74-5.51,4.83-7.32,6.28
				c0.24,0.36,0.9,0.65,1.99,0.86c1.09,0.21,2.35,0.32,3.8,0.32h25.3V1497.25z M737.81,1447.37c2.65-1.93,4.76-3.57,6.33-4.92
				c1.57-1.36,2.35-2.45,2.35-3.3c0-1.39-0.72-2.62-2.17-3.7s-3.28-2.02-5.51-2.8c-2.29-0.78-4.7-1.37-7.23-1.76
				c-2.53-0.39-4.91-0.59-7.14-0.59c-5.18,0-10.09,0.89-14.73,2.67c-4.64,1.78-6.96,3.78-6.96,6.01c0,0.72,0.84,1.85,2.53,3.39
				c1.69,1.54,3.73,3.18,6.14,4.92c2.17,1.57,4.58,3.19,7.23,4.88c2.65,1.69,4.58,2.83,5.78,3.43c1.57-0.78,3.64-1.96,6.23-3.52
				C733.27,1450.5,735.65,1448.94,737.81,1447.37z"/>
			<path d="M902.37,1497.25h-0.18c-5.42,0-10.41-1.54-14.95-4.61c-4.55-3.07-8.9-7.2-13.06-12.38c-3.13,5.72-7.49,10.23-13.06,13.51
				c-5.57,3.28-11.88,4.92-18.93,4.92c-5.3,0-10.36-0.92-15.18-2.76c-4.82-1.84-9.13-4.41-12.92-7.73
				c-3.61,3.01-7.47,5.27-11.57,6.78c-4.1,1.51-9.13,2.26-15.09,2.26h-13.37v-32.53h13.73c3.31,0,5.86-1.1,7.64-3.3
				c1.78-2.2,2.88-5.86,3.3-10.98c0.6-11.39,4.22-20.68,10.84-27.88c6.63-7.2,15.21-10.8,25.75-10.8c8.98,0,16.58,1.97,22.82,5.92
				c6.23,3.95,11.58,9.93,16.04,17.94c2.35,4.22,4.76,8.3,7.23,12.24c2.47,3.95,4.67,7.03,6.6,9.26c2.35,2.65,4.7,4.58,7.05,5.78
				c2.35,1.21,4.85,1.81,7.5,1.81h-0.18V1497.25z M854.39,1455.05c0-4.4-1.81-8.15-5.42-11.25c-3.61-3.1-7.71-4.65-12.29-4.65
				c-3.68,0-6.73,1.28-9.17,3.84c-2.44,2.56-3.66,5.65-3.66,9.26c0,3.74,1.67,7.02,5.01,9.85c3.34,2.83,7.42,4.25,12.24,4.25
				c3.98,0,7.18-1.02,9.62-3.07C853.17,1461.23,854.39,1458.49,854.39,1455.05z"/>
			<path d="M974.02,1497.25h-8.95c-6.39,0-11.99-1.36-16.81-4.07c-4.82-2.71-8.22-5.78-10.21-9.22c-2.53,4.1-6.1,7.33-10.71,9.71
				c-4.61,2.38-9.99,3.57-16.13,3.57h-15.18v-32.53h11.11c5.36,0,9.76-1.85,13.19-5.56c3.43-3.7,5.15-9.02,5.15-15.95v-11.11h25.21
				v11.11c0,6.45,1.63,11.64,4.88,15.59c3.25,3.95,7.77,5.92,13.55,5.92h4.88V1497.25z M929.84,1410.23h-13.37v-13.37h13.37V1410.23
				z M954.06,1410.23h-13.37v-13.37h13.37V1410.23z"/>
			<path d="M1054.18,1472.85c-10.3,6.14-20.92,11.75-31.85,16.81s-20.32,7.59-28.15,7.59H967.7v-32.53h27.2
				c11.87,0,22.2-1.59,30.99-4.79c8.79-3.19,18.52-7.71,29.19-13.55c-6.75-3.07-14.9-5.6-24.44-7.59
				c-9.55-1.99-19.11-2.98-28.69-2.98H983.6v-27.92h19.25c10.9,0,22.12,1.93,33.66,5.78c11.54,3.86,25.31,10.48,41.34,19.88
				l25.93-13.64v24.58l-31.72,17.98c1.32,0.78,2.68,1.35,4.07,1.72c1.39,0.36,3.19,0.54,5.42,0.54H1113v32.53h-27.56
				c-9.94,0-17.5-1.9-22.68-5.69C1057.58,1487.76,1054.72,1481.53,1054.18,1472.85z M1040.71,1523.73h-13.37v-13.37h13.37V1523.73z"
				/>
			<path d="M1212.22,1458.76c0,11.63-3.57,21.19-10.71,28.69c-7.14,7.5-16.04,11.25-26.7,11.25c-5.3,0-10.36-0.92-15.18-2.76
				c-4.82-1.84-9.13-4.41-12.92-7.73c-3.61,3.01-7.47,5.27-11.57,6.78c-4.1,1.51-9.13,2.26-15.09,2.26h-13.37v-32.53h13.73
				c4.03,0,6.81-1.43,8.31-4.29c1.51-2.86,2.38-6.19,2.62-9.98c0.6-11.39,4.22-20.68,10.84-27.88c6.63-7.2,15.21-10.8,25.75-10.8
				c5.78,0,11.35,1.12,16.72,3.34c5.36,2.23,10,5.3,13.92,9.22c4.1,3.98,7.39,8.89,9.89,14.73
				C1210.97,1444.9,1212.22,1451.47,1212.22,1458.76z M1187.01,1455.05c0-4.4-1.81-8.15-5.42-11.25c-3.61-3.1-7.71-4.65-12.29-4.65
				c-3.68,0-6.73,1.28-9.17,3.84c-2.44,2.56-3.66,5.65-3.66,9.26c0,3.74,1.67,7.02,5.01,9.85c3.34,2.83,7.42,4.25,12.24,4.25
				c3.98,0,7.18-1.02,9.62-3.07C1185.79,1461.23,1187.01,1458.49,1187.01,1455.05z"/>
		</g>
	</g>
</g>
</svg>
